<?xml version="1.0" encoding="utf-8"?>
<!-- Generator: Adobe Illustrator 16.0.0, SVG Export Plug-In . SVG Version: 6.00 Build 0)  -->
<!DOCTYPE svg PUBLIC "-//W3C//DTD SVG 1.1//EN" "http://www.w3.org/Graphics/SVG/1.1/DTD/svg11.dtd">
<svg version="1.1" id="Layer_1" xmlns="http://www.w3.org/2000/svg" xmlns:xlink="http://www.w3.org/1999/xlink" x="0px" y="0px" viewBox="0 0 757 111" enable-background="new 0 0 757 111" xml:space="preserve">
<g>
	<g>
		<path fill="#FF7F00" d="M152.771,35.657v-0.307c0-9.561-3.227-17.92-9.357-24.2C135.935,3.855,124.845,0,111.341,0h-36.58
			l8.818,20.135h26.225c13.403,0,20.784,5.785,20.784,16.289v0.306c0,10.141-7.906,16.441-20.63,16.441h-11.91L123.377,111h23.737
			l-19.27-41.936C143.938,63.845,152.771,52.04,152.771,35.657z"/>
		<path opacity="0.1" d="M152.771,35.657v-0.307c0-9.562-3.227-17.92-9.357-24.2c-5-4.876-11.622-8.207-19.492-9.884
			c4.64,1.846,8.678,4.403,12,7.643c6.13,6.28,9.357,14.639,9.357,24.2v0.306c0,16.382-8.833,28.188-24.927,33.408L140.74,111h6.375
			l-19.27-41.935C143.938,63.844,152.771,52.039,152.771,35.657z"/>
		<polygon fill="#FF3600" points="91.363,53.163 47.133,53.17 58.045,27.773 66.639,47.491 88.941,47.491 68.078,0 48.615,0 0,111 
			22.618,111 34.071,84.186 38.764,72.846 77.469,72.846 82.166,84.194 84.85,90.565 68.709,90.565 60.861,111 116.693,111 
			91.753,54.056 		"/>
		<polygon opacity="0.1" points="91.753,54.056 91.363,53.163 83.872,53.164 84.261,54.056 109.201,111 116.693,111 		"/>
		<polygon opacity="0.1" points="26.579,84.186 15.126,111 22.618,111 34.071,84.186 38.764,72.846 31.272,72.846 		"/>
		<polygon opacity="0.1" points="39.641,53.17 47.134,53.169 58.045,27.773 54.272,19.117 		"/>
		<polygon opacity="0.1" points="88.941,47.491 68.078,0 60.586,0 81.449,47.491 		"/>
	</g>
	<path fill="#FF3600" d="M207.083,22.038l-31.886,72.8h15.027l7.232-16.933h31.813l7.133,16.933h15.432l-31.884-72.8H207.083z
		 M223.823,64.823h-20.919L213.32,40.58L223.823,64.823z"/>
	<path fill="#FF3600" d="M291.184,70.713c0,7.368-4.166,11.945-10.871,11.945c-6.622,0-10.269-4.17-10.269-11.745V39.774h-14.319
		V74.52c0,13.213,7.651,21.42,19.967,21.42c6.237,0,11.333-2.361,15.492-7.2v6.099h14.42V39.774h-14.42V70.713z"/>
	<path fill="#FF3600" d="M333.023,25.245h-14.32v14.529h-6.73v12.58h6.73v26.775c0,11.022,5.501,16.61,16.351,16.61
		c4.46,0,8.001-0.878,11.482-2.845l0.549-0.311V80.288l-1.567,0.78c-2.311,1.154-4.551,1.69-7.05,1.69
		c-3.767,0-5.446-1.706-5.446-5.533V52.354h14.264v-12.58h-14.264V25.245z"/>
	<path fill="#FF3600" d="M380.054,38.672c-16.49,0-29.41,12.622-29.41,28.734v0.201c0,15.943,12.831,28.433,29.209,28.433
		c16.548,0,29.511-12.578,29.511-28.634v-0.2C409.364,51.205,396.489,38.672,380.054,38.672z M364.965,67.206
		c0-9.128,6.261-15.754,14.889-15.754c8.66,0,15.191,6.858,15.191,15.954v0.201c0,9.069-6.305,15.652-14.991,15.652
		c-8.461,0-15.089-6.963-15.089-15.854V67.206z"/>
	<path fill="#FF7F00" d="M478.168,45.964v-0.2c0-6.281-2.12-11.773-6.151-15.902c-4.91-4.789-12.188-7.321-21.048-7.321h-32.423
		v72.298h14.521V70.39h13.826l17.276,24.448h17.33L462.16,67.792C472.499,64.304,478.168,56.603,478.168,45.964z M433.066,35.922
		h16.897c8.695,0,13.483,3.744,13.483,10.542v0.201c0,6.565-5.128,10.643-13.383,10.643h-16.998V35.922z"/>
	<path fill="#FF7F00" d="M510.433,38.672c-15.392,0-26.998,12.309-26.998,28.635v0.199c0,16.534,11.904,28.534,28.305,28.534
		c9.234,0,16.813-3.468,22.528-10.308l0.671-0.805l-8.67-7.674l-0.722,0.702c-4.321,4.209-8.391,6.004-13.607,6.004
		c-7.174,0-12.427-4.281-13.968-11.266h38.67l0.105-1.267c0.095-1.109,0.183-2.158,0.183-3.22
		C536.93,53.505,528.736,38.672,510.433,38.672z M510.332,50.751c7.634,0,11.269,5.875,12.226,11.767h-24.714
		C499.233,55.327,504.036,50.751,510.332,50.751z"/>
	<polygon fill="#FF7F00" points="597.178,39.774 579.37,39.774 558.925,61.566 558.925,19.533 544.604,19.533 544.604,94.838 
		558.925,94.838 558.925,79.063 565.231,72.521 580.474,94.838 597.377,94.838 574.911,62.513 	"/>
	<path fill="#FF7F00" d="M631.97,38.672c-6.8,0-12.388,2.581-16.998,7.872V19.533h-14.32v75.305h14.32v-6.315
		c4.613,4.985,10.202,7.417,16.998,7.417c12.768,0,25.693-9.801,25.693-28.533v-0.2C657.663,48.473,644.737,38.672,631.97,38.672z
		 M643.143,67.406c0,9.334-5.793,15.854-14.086,15.854c-8.202,0-14.387-6.815-14.387-15.854v-0.2
		c0-9.039,6.185-15.854,14.387-15.854c8.161,0,14.086,6.668,14.086,15.854V67.406z"/>
	<path fill="#FF7F00" d="M689.726,38.672c-15.392,0-26.998,12.309-26.998,28.635v0.199c0,16.534,11.903,28.534,28.304,28.534
		c9.235,0,16.814-3.468,22.529-10.308l0.671-0.805l-8.671-7.674l-0.721,0.702c-4.321,4.209-8.393,6.004-13.608,6.004
		c-7.173,0-12.426-4.281-13.967-11.266h38.67l0.105-1.266c0.094-1.109,0.182-2.159,0.182-3.221
		C716.222,53.505,708.028,38.672,689.726,38.672z M689.625,50.751c7.634,0,11.268,5.875,12.226,11.767h-24.714
		C678.526,55.327,683.328,50.751,689.625,50.751z"/>
	<path fill="#FF7F00" d="M755.964,38.773c-0.341-0.016-0.678-0.022-1.011-0.022c-7.05,0-12.867,3.358-16.737,9.557v-8.533h-14.32
		v55.063h14.32v-21.22c0-12.622,6.196-19.862,16.999-19.862H757V38.818L755.964,38.773z"/>
	<g opacity="0.1">
		<path d="M190.225,94.838l7.232-16.933h31.813l7.133,16.933h15.432l-11.567-26.412c-23.778-1.973-42.001,0.507-55.368,4.263
			l-9.702,22.149H190.225z"/>
		<path d="M275.691,95.939c6.237,0,11.333-2.361,15.492-7.2v6.099h14.42V79.346c-5.121-0.797-10.306-1.67-15.581-2.623
			c-1.677,3.762-5.09,5.936-9.71,5.936c-6.032,0-9.584-3.471-10.172-9.813l0,0c-4.989-1.039-9.79-1.897-14.416-2.598v4.271
			C255.725,87.732,263.375,95.939,275.691,95.939z"/>
		<path d="M335.055,95.739c4.46,0,8.001-0.878,11.482-2.845l0.549-0.311v-8.356c-9.414-0.739-18.79-1.728-28.307-2.985
			C319.459,90.863,324.923,95.739,335.055,95.739z"/>
		<path d="M379.854,96.04c9.231,0,17.344-3.918,22.717-10.167c-16.076,0.223-31.195-0.081-46.063-0.986
			C361.795,91.705,370.207,96.04,379.854,96.04z"/>
		<path d="M464.169,94.838h17.33l-8.875-12.413c-5.614,0.42-11.083,0.808-16.409,1.156L464.169,94.838z"/>
		<path d="M433.066,94.838v-9.936c-4.944,0.235-9.782,0.435-14.521,0.592v9.344H433.066z"/>
		<path d="M511.739,96.04c9.234,0,16.813-3.468,22.528-10.308l0.671-0.805l-8.021-7.1c-0.458,0.043-0.91,0.086-1.37,0.128
			c-4.321,4.209-8.391,6.004-13.607,6.004c-4.097,0-7.563-1.4-10.073-3.899c-5.2,0.447-10.272,0.872-15.228,1.272
			C491.236,90.317,500.415,96.04,511.739,96.04z"/>
		<path d="M558.925,94.838V79.063l4.889-5.072c-6.25,0.705-12.651,1.409-19.21,2.093v18.754H558.925z"/>
		<path d="M580.474,94.838h16.903l-15.898-22.876c-5.037,0.584-10.177,1.179-15.417,1.774L580.474,94.838z"/>
		<path d="M614.972,94.838v-6.315c4.613,4.985,10.202,7.417,16.998,7.417c12.768,0,25.693-9.801,25.693-28.533v-0.2
			c0-0.669-0.021-1.321-0.054-1.968c-4.758,0.124-9.595,0.341-14.521,0.641c0.028,0.438,0.054,0.878,0.054,1.327v0.2
			c0,9.334-5.793,15.854-14.086,15.854c-7.939,0-13.969-6.392-14.35-14.995c-4.604,0.469-9.284,0.974-14.056,1.506v25.067H614.972z"
			/>
		<path d="M662.728,67.506c0,16.534,11.903,28.534,28.304,28.534c9.235,0,16.814-3.468,22.529-10.308l0.671-0.805l-8.671-7.674
			l-0.721,0.702c-4.321,4.209-8.393,6.004-13.608,6.004c-7.173,0-12.426-4.281-13.967-11.266h38.67l0.105-1.266
			c0.027-0.322,0.049-0.632,0.073-0.945c-17.023-4.116-34.581-5.543-53.309-5.341c-0.046,0.713-0.077,1.433-0.077,2.164V67.506z"/>
		<path d="M738.216,94.838v-17.31c-4.748-1.898-9.517-3.544-14.32-4.957v22.267H738.216z"/>
	</g>
</g>
</svg>
