<?xml version="1.0" encoding="utf-8"?>
<!-- Generator: Adobe Illustrator 16.0.0, SVG Export Plug-In . SVG Version: 6.00 Build 0)  -->
<!DOCTYPE svg PUBLIC "-//W3C//DTD SVG 1.1//EN" "http://www.w3.org/Graphics/SVG/1.1/DTD/svg11.dtd">
<svg version="1.1" id="Layer_1" xmlns="http://www.w3.org/2000/svg" xmlns:xlink="http://www.w3.org/1999/xlink" x="0px" y="0px" viewBox="0 0 100 100" enable-background="new 0 0 100 100" xml:space="preserve">
<g>
	<path fill="#FF7F00" d="M100,37.536v-0.201c0-6.274-2.112-11.759-6.124-15.881c-4.896-4.787-12.156-7.316-20.995-7.316H48.937
		L54.71,27.35h17.165c8.773,0,13.605,3.796,13.605,10.689v0.201c0,6.655-5.175,10.79-13.504,10.79h-7.796L80.76,86.977h15.537
		L83.684,59.459C94.218,56.032,100,48.286,100,37.536z"/>
	<path opacity="0.1" d="M100,37.536v-0.201c0-6.274-2.112-11.759-6.124-15.881c-3.274-3.199-7.608-5.386-12.761-6.486
		c3.038,1.212,5.681,2.89,7.855,5.015c4.013,4.121,6.125,9.607,6.125,15.88v0.202c0,10.75-5.781,18.496-16.315,21.922l13.344,28.989
		h4.173L83.684,59.459C94.218,56.031,100,48.285,100,37.536z"/>
	<polygon fill="#FF3600" points="59.804,49.023 30.853,49.029 37.995,32.362 43.62,45.301 58.218,45.301 44.562,14.137 
		31.822,14.137 0,86.977 14.805,86.977 22.302,69.38 25.374,61.94 50.708,61.94 53.783,69.386 55.54,73.567 44.976,73.567 
		39.838,86.977 76.384,86.977 60.059,49.609 	"/>
	<polygon opacity="0.1" points="60.059,49.609 59.804,49.023 54.9,49.023 55.154,49.609 71.48,86.977 76.384,86.977 	"/>
	<polygon opacity="0.1" points="17.397,69.38 9.901,86.977 14.805,86.977 22.302,69.38 25.374,61.94 20.47,61.94 	"/>
	<polygon opacity="0.1" points="25.948,49.029 30.853,49.027 37.995,32.362 35.525,26.682 	"/>
	<polygon opacity="0.1" points="58.218,45.301 44.562,14.137 39.658,14.137 53.314,45.301 	"/>
</g>
</svg>
