<?xml version="1.0" encoding="utf-8"?>
<!-- Generator: Adobe Illustrator 16.0.0, SVG Export Plug-In . SVG Version: 6.00 Build 0)  -->
<!DOCTYPE svg PUBLIC "-//W3C//DTD SVG 1.1//EN" "http://www.w3.org/Graphics/SVG/1.1/DTD/svg11.dtd">
<svg version="1.1" id="Layer_1" xmlns="http://www.w3.org/2000/svg" xmlns:xlink="http://www.w3.org/1999/xlink" x="0px" y="0px" viewBox="0 0 407 111" enable-background="new 0 0 407 111" xml:space="preserve">
<g>
	<g>
		<path fill="#FF7F00" d="M152.639,35.657V35.35c0-9.561-3.224-17.92-9.349-24.2C135.817,3.855,124.736,0,111.245,0H74.697
			l8.811,20.135h26.202c13.392,0,20.767,5.784,20.767,16.288v0.307c0,10.141-7.899,16.441-20.612,16.441h-11.9L123.27,111h23.717
			l-19.252-41.936C143.813,63.844,152.639,52.039,152.639,35.657z"/>
		<path opacity="0.1" d="M152.639,35.657V35.35c0-9.562-3.224-17.92-9.349-24.2c-4.996-4.875-11.611-8.207-19.475-9.884
			c4.637,1.847,8.671,4.404,11.989,7.643c6.125,6.28,9.349,14.639,9.349,24.2v0.307c0,16.381-8.826,28.187-24.905,33.407
			L140.617,111h6.37l-19.252-41.936C143.813,63.843,152.639,52.038,152.639,35.657z"/>
		<polygon fill="#FF3600" points="91.284,53.163 47.092,53.17 57.995,27.772 66.581,47.49 88.863,47.49 68.019,0 48.573,0 0,111 
			22.599,111 34.042,84.185 38.73,72.846 77.401,72.846 82.094,84.193 84.776,90.564 68.65,90.564 60.809,111 116.592,111 
			91.673,54.055 		"/>
		<polygon opacity="0.1" points="91.673,54.056 91.284,53.163 83.799,53.163 84.188,54.056 109.106,111 116.592,111 		"/>
		<polygon opacity="0.1" points="26.556,84.185 15.113,111 22.599,111 34.042,84.185 38.73,72.846 31.245,72.846 		"/>
		<polygon opacity="0.1" points="39.606,53.17 47.093,53.168 57.995,27.772 54.225,19.116 		"/>
		<polygon opacity="0.1" points="88.863,47.49 68.019,0 60.534,0 81.378,47.49 		"/>
	</g>
	<path fill="#FF3600" d="M195.32,1.48l-22.016,50.311h10.375l4.994-11.703h21.967l4.924,11.703h10.656L204.205,1.48H195.32z
		 M206.878,31.048h-14.443l7.191-16.754L206.878,31.048z"/>
	<path fill="#FF3600" d="M253.39,35.119c0,5.091-2.877,8.254-7.506,8.254c-4.572,0-7.09-2.883-7.09-8.117v-21.52h-9.889v24.012
		c0,9.13,5.283,14.803,13.787,14.803c4.308,0,7.824-1.632,10.697-4.977v4.215h9.957V13.737h-9.957V35.119z"/>
	<path fill="#FF3600" d="M282.279,3.697h-9.887v10.04h-4.647v8.693h4.647v18.504c0,7.618,3.797,11.479,11.29,11.479
		c3.078,0,5.524-0.607,7.927-1.967l0.38-0.214v-8.498l-1.082,0.539c-1.595,0.798-3.143,1.169-4.867,1.169
		c-2.601,0-3.761-1.179-3.761-3.823V22.43h9.849v-8.693h-9.849V3.697z"/>
	<path fill="#FF3600" d="M314.754,12.976c-11.389,0-20.309,8.721-20.309,19.856v0.139c0,11.018,8.859,19.65,20.17,19.65
		c11.425,0,20.376-8.692,20.376-19.789v-0.137C334.991,21.636,326.103,12.976,314.754,12.976z M304.334,32.695
		c0-6.31,4.324-10.888,10.281-10.888c5.979,0,10.489,4.74,10.489,11.025v0.139c0,6.268-4.354,10.817-10.351,10.817
		c-5.843,0-10.42-4.813-10.42-10.957V32.695z"/>
	<path fill="#FF7F00" d="M214.472,76.178v-0.139c0-4.343-1.464-8.138-4.247-10.989c-3.392-3.312-8.417-5.062-14.534-5.062h-22.387
		v49.965h10.026V93.058h9.547l11.929,16.896h11.967l-13.354-18.691C210.558,88.851,214.472,83.529,214.472,76.178z M183.33,69.238
		h11.668c6.003,0,9.309,2.586,9.309,7.285v0.138c0,4.538-3.54,7.355-9.239,7.355H183.33V69.238z"/>
	<path fill="#FF7F00" d="M236.75,71.139c-10.627,0-18.642,8.506-18.642,19.787v0.139c0,11.427,8.22,19.721,19.544,19.721
		c6.376,0,11.609-2.397,15.556-7.125l0.463-0.556l-5.986-5.304l-0.498,0.486c-2.983,2.907-5.794,4.148-9.396,4.148
		c-4.953,0-8.58-2.959-9.645-7.785h26.7l0.074-0.876c0.064-0.767,0.124-1.491,0.124-2.226
		C255.045,81.39,249.389,71.139,236.75,71.139z M236.681,79.485c5.271,0,7.779,4.061,8.44,8.133h-17.063
		C229.018,82.647,232.334,79.485,236.681,79.485z"/>
	<polygon fill="#FF7F00" points="296.646,71.899 284.35,71.899 270.232,86.959 270.232,57.912 260.346,57.912 260.346,109.953 
		270.232,109.953 270.232,99.052 274.588,94.53 285.112,109.953 296.784,109.953 281.271,87.613 	"/>
	<path fill="#FF7F00" d="M320.67,71.139c-4.696,0-8.554,1.783-11.737,5.44V57.912h-9.889v52.041h9.889v-4.364
		c3.186,3.444,7.043,5.125,11.737,5.125c8.814,0,17.74-6.772,17.74-19.718v-0.139C338.41,77.912,329.484,71.139,320.67,71.139z
		 M328.383,90.996c0,6.45-4,10.955-9.725,10.955c-5.665,0-9.934-4.709-9.934-10.955v-0.139c0-6.247,4.269-10.958,9.934-10.958
		c5.636,0,9.725,4.607,9.725,10.958V90.996z"/>
	<path fill="#FF7F00" d="M360.549,71.139c-10.627,0-18.641,8.506-18.641,19.787v0.139c0,11.427,8.218,19.721,19.542,19.721
		c6.378,0,11.61-2.397,15.556-7.125l0.464-0.556l-5.986-5.304l-0.499,0.486c-2.982,2.907-5.794,4.148-9.396,4.148
		c-4.953,0-8.581-2.959-9.643-7.785h26.699l0.074-0.876c0.064-0.767,0.125-1.491,0.125-2.226
		C378.844,81.39,373.187,71.139,360.549,71.139z M360.479,79.485c5.271,0,7.779,4.061,8.442,8.133h-17.066
		C352.816,82.647,356.13,79.485,360.479,79.485z"/>
	<path fill="#FF7F00" d="M406.284,71.207c-0.235-0.01-0.468-0.016-0.697-0.016c-4.868,0-8.884,2.32-11.556,6.605v-5.897h-9.889
		v38.054h9.889V95.289c0-8.723,4.276-13.727,11.736-13.727H407V71.237L406.284,71.207z"/>
	<path opacity="0.1" d="M183.679,51.791l4.994-11.703h21.967l4.924,11.703h10.656l-7.987-18.253
		c-16.418-1.363-29.001,0.351-38.231,2.947l-6.698,15.306H183.679z"/>
	<path opacity="0.1" d="M242.692,52.552c4.308,0,7.824-1.632,10.697-4.977v4.215h9.957V41.084
		c-3.536-0.551-7.116-1.153-10.758-1.813c-1.157,2.6-3.516,4.103-6.705,4.103c-4.165,0-6.618-2.398-7.023-6.781l0,0
		c-3.445-0.718-6.76-1.311-9.955-1.795v2.952C228.905,46.879,234.188,52.552,242.692,52.552z"/>
	<path opacity="0.1" d="M283.683,52.414c3.078,0,5.524-0.607,7.927-1.967l0.38-0.214v-5.775c-6.499-0.511-12.973-1.194-19.544-2.064
		C272.913,49.043,276.686,52.414,283.683,52.414z"/>
	<path opacity="0.1" d="M314.615,52.622c6.374,0,11.975-2.708,15.685-7.025c-11.1,0.153-21.538-0.058-31.806-0.682
		C302.146,49.625,307.952,52.622,314.615,52.622z"/>
	<path opacity="0.1" d="M204.806,109.953h11.967l-6.129-8.579c-3.876,0.291-7.652,0.558-11.33,0.799L204.806,109.953z"/>
	<path opacity="0.1" d="M183.33,109.953v-6.866c-3.413,0.163-6.754,0.3-10.026,0.409v6.457H183.33z"/>
	<path opacity="0.1" d="M237.652,110.785c6.376,0,11.609-2.397,15.556-7.125l0.463-0.556l-5.538-4.906
		c-0.316,0.029-0.63,0.06-0.946,0.089c-2.983,2.907-5.794,4.148-9.396,4.148c-2.83,0-5.222-0.968-6.955-2.694
		c-3.591,0.309-7.094,0.602-10.514,0.879C223.495,106.829,229.833,110.785,237.652,110.785z"/>
	<path opacity="0.1" d="M270.232,109.953V99.052l3.376-3.506c-4.315,0.488-8.734,0.974-13.263,1.447v12.96H270.232z"/>
	<path opacity="0.1" d="M285.112,109.953h11.672l-10.979-15.809c-3.478,0.403-7.026,0.813-10.646,1.225L285.112,109.953z"/>
	<path opacity="0.1" d="M308.933,109.953v-4.364c3.186,3.444,7.043,5.125,11.737,5.125c8.814,0,17.74-6.772,17.74-19.718v-0.139
		c0-0.462-0.013-0.914-0.036-1.36c-3.287,0.086-6.626,0.235-10.025,0.442c0.017,0.303,0.034,0.606,0.034,0.918v0.139
		c0,6.45-4,10.955-9.725,10.955c-5.481,0-9.646-4.417-9.908-10.363c-3.18,0.325-6.412,0.674-9.706,1.041v17.324H308.933z"/>
	<path opacity="0.1" d="M341.908,91.064c0,11.427,8.218,19.721,19.542,19.721c6.378,0,11.61-2.397,15.556-7.125l0.464-0.556
		l-5.986-5.304l-0.499,0.486c-2.982,2.907-5.794,4.148-9.396,4.148c-4.953,0-8.581-2.959-9.643-7.785h26.699l0.074-0.876
		c0.018-0.222,0.033-0.436,0.049-0.652c-11.754-2.844-23.875-3.83-36.808-3.691c-0.03,0.493-0.052,0.991-0.052,1.495V91.064z"/>
	<path opacity="0.1" d="M394.031,109.953V97.991c-3.279-1.313-6.571-2.449-9.889-3.427v15.389H394.031z"/>
</g>
</svg>
