<svg xmlns="http://www.w3.org/2000/svg" xmlns:xlink="http://www.w3.org/1999/xlink" viewBox="0 0 400 300" xmlns:v="https://vecta.io/nano"><style><![CDATA[.B{fill:#7d6575}.C{fill:#3f3d56}]]></style><defs><linearGradient id="A" x1="198.37" y1="182.71" x2="194.6" y2="300.58" gradientUnits="userSpaceOnUse"><stop offset=".01"/><stop offset=".13" stop-opacity=".69"/><stop offset="1" stop-opacity="0"/></linearGradient><linearGradient id="B" x1="135.65" y1="223.15" x2="209.32" y2="237.88" xlink:href="#A"/><linearGradient id="C" x1="178.44" y1="239.72" x2="258.7" y2="196.04" xlink:href="#A"/><linearGradient id="D" x1="197.42" y1="205.47" x2="173.07" y2="179.14" xlink:href="#A"/><linearGradient id="E" x1="203.11" y1="161.13" x2="228.61" y2="169.07" xlink:href="#A"/><linearGradient id="F" x1="213.59" y1="168.53" x2="255.81" y2="163.52" xlink:href="#A"/><linearGradient id="G" x1="132.87" y1="160.6" x2="201.22" y2="178.78" xlink:href="#A"/><linearGradient id="H" x1="289.73" y1="177.22" x2="264.02" y2="258.73" xlink:href="#A"/><linearGradient id="I" x1="189.48" y1="110.65" x2="210.74" y2="110.65" gradientUnits="userSpaceOnUse"><stop offset="0" stop-color="#ecc4d7"/><stop offset=".42" stop-color="#efd4d1"/><stop offset="1" stop-color="#f2eac9"/></linearGradient><linearGradient id="J" x1="205.91" y1="69.08" x2="203.01" y2="159.9" xlink:href="#A"/><linearGradient id="K" x1="266.48" y1="489.06" x2="336.83" y2="489.06" gradientTransform="matrix(0.99, -0.12, -0.12, -0.99, -10.95, 611.15)" xlink:href="#I"/><linearGradient id="L" x1="193.88" y1="154.37" x2="271.19" y2="154.37" xlink:href="#A"/><linearGradient id="M" x1="287.7" y1="140.55" x2="255.4" y2="160.77" gradientUnits="userSpaceOnUse"><stop offset=".02" stop-color="#fff" stop-opacity="0"/><stop offset=".58" stop-color="#fff" stop-opacity=".39"/><stop offset=".68" stop-color="#fff" stop-opacity=".68"/><stop offset="1" stop-color="#fff"/></linearGradient><linearGradient id="N" x1="267.83" y1="184.52" x2="291.56" y2="184.52" xlink:href="#I"/><linearGradient id="O" x1="158.07" y1="191.63" x2="158.29" y2="191.63" xlink:href="#A"/><linearGradient id="P" x1="140.6" y1="231.12" x2="210.61" y2="221.3" xlink:href="#A"/><linearGradient id="Q" x1="123.14" y1="132.92" x2="197.45" y2="146.71" xlink:href="#A"/><linearGradient id="R" x1="236.92" y1="242.45" x2="281.12" y2="260.32" xlink:href="#A"/><linearGradient id="S" x1="204.35" y1="171.58" x2="277.19" y2="171.58" xlink:href="#A"/><linearGradient id="T" x1="230.13" y1="159.36" x2="245.18" y2="174.41" xlink:href="#M"/><linearGradient id="U" x1="226.9" y1="149.81" x2="245.01" y2="189.05" xlink:href="#M"/><linearGradient id="V" x1="227.67" y1="132.64" x2="278.93" y2="132.64" xlink:href="#M"/><linearGradient id="W" x1="184.86" y1="176.83" x2="206.2" y2="176.83" xlink:href="#I"/><linearGradient id="X" x1="307.69" y1="226.85" x2="229.47" y2="244.25" xlink:href="#A"/><linearGradient id="Y" x1="331.53" y1="211.04" x2="287.79" y2="220.77" xlink:href="#A"/><path id="Z" d="M157.34,207.91s-6.06-8.34-13.38-4.18-12.54,36.79-4.18,42.85,16.72-12.13,16.72-12.13Z"/><path id="a" d="M179.55 254.31s-26.81-20.69-27.75-24.45-4.7-12.23-.49-17.87 13.17-4.24 13.17-4.24 19.76 23.99 15.07 46.56z"/><path id="b" d="M272.5,174l32.74,17a6.63,6.63,0,0,1,.58,5c-.9,2.44-3.93,7.41-8.41,6.53s-32.66-16-32.66-16Z"/><path id="c" d="M271.19,139c-12.62-8.09-35.83-2-52.76,14.19-11.49,11-17.23,23.82-16.3,34-.4-.25-.79-.53-1.17-.81-12.32-9.27-8.15-30.3,9.31-47s41.61-22.66,54-13.38A17.78,17.78,0,0,1,271.19,139Z"/><path id="d" d="M261.5 185.12C244.82 201 221.93 207 210.45 198.33a15.4 15.4 0 0 1-6.1-11.41s6.7 14.71 37.42-3.15S270 140.86 270 140.86a8.74 8.74 0 0 1 1 .69 15.73 15.73 0 0 1 6.16 12.1c.58 9.79-5.28 21.56-15.66 31.47z"/><path id="e" d="M266.15 127.42l12.78 16.3s-12.14-16.54-40.7-6l-10.56-10.58s23.9-12.73 38.48.28z"/><path id="f" d="M283.06 257.81v-4.17l-4.41-1.21a12.81 12.81 0 0 1-6.79-5.09 12.67 12.67 0 0 1-2-7.06H278c.38 3 1.85 5.19 5 6v-11l-4.88-1.43a11.49 11.49 0 0 1-4.73-2.7 9.4 9.4 0 0 1-2.63-5.13 13.23 13.23 0 0 1 .51-7.08 11.8 11.8 0 0 1 7.14-7.06 36.65 36.65 0 0 1 4.12-1.07l.49-.09v-5.55h7.61v5.27c0 .39.12.49.49.59a16 16 0 0 1 7.1 3.3 11.54 11.54 0 0 1 4 7.07l.29 2.32h-8.21a5.79 5.79 0 0 0-3.59-5.23v10.29l.89.22a29.2 29.2 0 0 1 6.49 2.07 9.39 9.39 0 0 1 5.62 7.85 12.29 12.29 0 0 1-2.15 9 12.47 12.47 0 0 1-6.14 4.55c-1.52.52-3.11.88-4.75 1.33v4zm7.65-21v9.6a7 7 0 0 0 3.36-1.48c1.77-1.47 2.39-5.06-.2-6.64a28.37 28.37 0 0 0-3.16-1.44zM283 227v-9.29a28.39 28.39 0 0 0-2.91 1.48c-2.11 1.41-2.45 5.32.25 6.69.83.43 1.72.73 2.65 1.1z"/><path id="g" d="M317.75 228.35V226l-2.45-.68a7.18 7.18 0 0 1-3.79-2.84 7 7 0 0 1-1.09-3.95H315a3.62 3.62 0 0 0 2.79 3.37v-6.18l-2.72-.8a6.37 6.37 0 0 1-2.65-1.5 5.26 5.26 0 0 1-1.47-2.87 7.32 7.32 0 0 1 .29-4 6.57 6.57 0 0 1 4-4 23.58 23.58 0 0 1 2.3-.6l.28-.05v-3.09H322v3c0 .21.06.28.27.33a8.91 8.91 0 0 1 4 1.85 6.45 6.45 0 0 1 2.26 4l.16 1.3h-4.63a3.23 3.23 0 0 0-2-2.94v5.76l.49.12a16 16 0 0 1 3.63 1.16 5.23 5.23 0 0 1 3.14 4.38 6.9 6.9 0 0 1-4.63 7.57c-.85.3-1.74.49-2.66.74v2.26zm4.25-11.72V222a4 4 0 0 0 1.88-.84 2.35 2.35 0 0 0-.11-3.71 16.68 16.68 0 0 0-1.77-.82zm-4.29-5.49V206a15.43 15.43 0 0 0-1.62.83 2.24 2.24 0 0 0 .13 3.74c.45.24 1 .4 1.49.62z"/></defs><path d="M343.22 212.56c1.15-18.1-14-35.13-10-52.81 1.47-6.49 5.44-12.2 7.07-18.67 1.8-7.1.65-14.64-1.44-21.67a84.52 84.52 0 0 0-28.33-41.86c-19.4-15.4-44.76-21.47-69.52-22.79s-49.54 1.66-74.32 2.24C151 57.42 135 56.9 120 61.68c-17.73 5.66-32.63 18.54-42.92 34.06s-16.3 33.54-19.91 51.8c-1.38 7.07-2.45 14.4-.89 21.43C59.12 181.72 70 191.13 75 203.2c3.5 8.39 4 17.76 7.23 26.29 5.33 14.36 17.83 25.18 31.77 31.51s29.33 8.75 44.55 10.45a559.28 559.28 0 0 0 76.11 3.25c25.51-.66 43.28-8.67 65.52-19.77 18.09-8.99 41.56-18.88 43.04-42.37z" opacity=".18" class="B"/><path d="M287.76 244c2.25.61 4.73 1.47 5.74 3.56 2.35 4.91-5.12 8.39-10.54 8.7a944.71 944.71 0 0 1-167.21-5.4c-6.31-.77-13.35-2-17-7.2 6.46-8.51 18.72-9.23 29.38-9.23 53.21.09 107.81-4.57 159.63 9.57z" fill="url(#A)"/><g class="B"><path d="M284,177l-19.41,11.35-2.73-.74c-7.69-2.13-29.11-8.27-31-11.36-2.35-3.76-10.84-21.48-10.84-21.48l4-12.26L228.61,128s18.18,29.46,21.47,31.35S284,177,284,177Z"/><use xlink:href="#Z"/></g><use xlink:href="#Z" fill="url(#B)"/><use xlink:href="#a" class="B"/><g class="C"><use xlink:href="#a"/><path d="M260 251.49c-4.7 4.71-24.46 4.71-28.69.94s-12.86-4.86-12.38-13.8l2.66-3.92-.49-.13-2.62-.69-1.73-17.83-19.44 5.64-1.88-28.08s30.25-16.91 42-14.55 8 29.62 8.46 31c.34 1 .44 12.47 1.48 20.19.15 1.13-3.24 1.61-3.05 2.54.36 1.64 4.35 3.47 4.87 4.07 2.81 3.33 15.47 9.91 10.81 14.62z"/></g><path d="M232.58 234.45l-11.53.14-2.62-.69-1.73-17.83-16.36 4.74-.16-.15-.83-16.51s23.82-9 27-7.73 6.23 38.03 6.23 38.03z" fill="url(#C)"/><path d="M219.63 181.52l4.59 10.73-64.42 6.57c-6.38.42-6.79-11.57-6.07-19.57a57.24 57.24 0 0 1 .42-3.47c2.11-13.62 5.94-32 9-45.76 2.2-9.81 4-17.26 4.61-19 1.88-5.65 22.56-6 22.56-6h.32C211.85 103.78 228.6 128 228.6 128l-8.07 28-4.78 16.55 1.5 3.5z" class="B"/><path d="M176.67 196c.63-1.35 2.17-2 3.55-2.49a45.26 45.26 0 0 0 7.85-4 8.09 8.09 0 0 1 2.45-1.24 4.67 4.67 0 0 1 4.24 1.34c4.68 4.6-1.47 4.56-5 5-1.49.24-12.67.5-13.09 1.39z" fill="url(#D)"/><path d="M220.53 156l-4.77 16.55.78 1.81a5 5 0 0 0 .37 1.05l.34.64c.92 1.55 2.3 2.94 2.42 4.7a3.76 3.76 0 0 1 0 .82c-.29 1.89-2 3.44-3.51 4.69a14.88 14.88 0 0 1-5 3.08c-2.92.84-6.12-.21-8.55-2a30 30 0 0 1-6-6.82c-1.12-1.57-2.29-3.29-2.29-5.22a7.86 7.86 0 0 1 .66-2.82c2.16-5.59 6.15-10.25 10.07-14.79l14.3-16.6a2.81 2.81 0 0 1 1.89-1.25c1 0 1.73 1 2.23 1.85l.49.87-4 12.26s.21.38.57 1.18z" fill="url(#E)"/><path d="M261.84 187.6c-7.69-2.13-29.11-8.27-31-11.35-2.35-3.76-10.84-21.48-10.84-21.48l4-12.26 12.56 21.85c1.83 3.18 3.71 6.43 6.56 8.73a29.69 29.69 0 0 0 6.46 3.63c2.18 1.03 17.15 6.21 12.26 10.88z" fill="url(#F)"/><path d="M194.94 192.87c-9.28-12.08-34.86-8.79-35.31-8.33-1.82 2 1 7.9 1.56 10.5.26 1.13 4.8 2.09 4.38 3.17l-5.78.59c-7.36.49-6.78-15.73-5.65-23.05 1.39-9 3.55-20.14 5.74-30.62.31-.38.63-.74 1-1.1 2.42-2.54 8-5.73 11.64-4.11 4.91 2.16 1.45 7.46.23 11.53a7.58 7.58 0 0 0-.49 3.27 7.29 7.29 0 0 0 1.93 3.51 56.89 56.89 0 0 0 10.3 9.49c2.37 1.69 4.95 3.28 6.5 5.74 3.55 5.68.43 13.73 3.95 19.41z" fill="url(#G)"/><use xlink:href="#b" class="B"/><use xlink:href="#b" fill="url(#H)"/><path d="M202.33 125.85a6.56 6.56 0 0 1-4.61-.71c-4.88-2.39-7.91-7.77-8.21-13.19s1.88-10.79 5.24-15a3.41 3.41 0 0 1 2.45-1.62 3.51 3.51 0 0 1 2.38 1.56c3.82 4.57 10.15 12.1 11.06 18.19.46 3.14-1.25 3.39-3.3 5.85-1.48 1.78-2.52 4.21-5.01 4.92z" fill="url(#I)"/><path d="M197,108s-.42,14.84,2.51,17.56,5.43-2.51,5.43-2.51l7.11-7.74Z" fill="url(#J)"/><path d="M239.48 112.83a37.37 37.37 0 0 1-6.78 6.22 26 26 0 0 1-17.7 3.79 23.08 23.08 0 0 1-13.2-5.86c-4.29-4.13-6.31-10.21-6.53-16.18s1.24-11.85 3-17.54a46.49 46.49 0 0 1 5.29-12.1c7.18-10.79 21-15.25 34-15.64 6.42-.2 13.24.54 18.45 4.32 3.79 2.74 6.95 8.12 6.26 13-.54 3.82-3.59 7.78-4.93 11.42a88.75 88.75 0 0 1-17.86 28.57z" fill="url(#K)"/><path d="M264 82.58a15 15 0 0 1-3 4.85 9.67 9.67 0 0 1-11.31 1.87c-2.74-1.47-4.72-4.16-7.15-6.15-5.1-4.18-12.54-4.87-17.86-1.06-1.52 1.09-2.94 2.54-4.73 2.78-2.26.31-4.46-1.4-6.7-1-2.09.38-3.54 2.45-4.6 4.48s-2.06 4.26-3.92 5.4l.67-5.54a12.78 12.78 0 0 0 0-5c-.43-1.59-1.68-3.05-3.19-3.05s-2.8 1.45-3.32 3a23.7 23.7 0 0 0-.66 5 11.45 11.45 0 0 1-1.9 5.76c-1.19 1.61.59 4.6-1.24 4.12s-7-4.52-7.85-6.56c-2.77-6.8-1.85-14.71-.39-22a71.11 71.11 0 0 1 5.15-17.1c2.59-5.36 6.34-10.2 11.18-13.1a23.37 23.37 0 0 1 13.86-3.16 26.12 26.12 0 0 1 5.75 1.12 9.58 9.58 0 0 0 2.29.56 10.45 10.45 0 0 0 3.49-.75c7.19-2.19 14.87.08 21.81 3.12 3.72 1.64 7.47 3.59 10.16 6.87 3.88 4.74 4.67 11.14 4.82 17.27.19 6.31 1.09 12.28-1.36 18.27z" class="C"/><use xlink:href="#c" class="B"/><use xlink:href="#c" fill="url(#L)"/><path d="M223.9 206.71c-6.34 0-11.89-1.63-16.12-4.82a19.81 19.81 0 0 1-7.85-14.56c-1-11.28 5.31-24.65 17-35.8 17.59-16.78 42-23.13 55.5-14.45a15.32 15.32 0 0 1 1.3.9 20 20 0 0 1 7.93 15.39c.65 11.09-5.72 24.15-17 35h0a68 68 0 0 1-29.89 17 44.7 44.7 0 0 1-10.87 1.34zm33.66-69.08A41.39 41.39 0 0 0 247 139.1a64.23 64.23 0 0 0-27 15.65c-10.52 10.05-16.5 22.37-15.61 32.16a15.37 15.37 0 0 0 6.1 11.4c11.47 8.63 34.37 2.71 51.05-13.21 10.38-9.91 16.24-21.68 15.67-31.47a15.7 15.7 0 0 0-6.16-12.1 11.26 11.26 0 0 0-1-.69 23 23 0 0 0-12.49-3.21z" class="B"/><path d="M281.61 153.39a20 20 0 0 0-7.92-15.4l-1.3-.89c-13.53-8.69-37.91-2.34-55.5 14.44-11.66 11.14-18 24.53-17 35.81a20 20 0 0 0 7.85 14.55 21.4 21.4 0 0 0 3.81 2.29 28.74 28.74 0 0 0 12.32 2.53 45.1 45.1 0 0 0 10.79-1.4 62.18 62.18 0 0 0 15.66-6.32 72.73 72.73 0 0 0 14.25-10.65c7.85-7.51 13.35-16.11 15.73-24.38a31.18 31.18 0 0 0 1.31-10.58zm-20.11 31.73C244.83 201 221.93 207 210.45 198.33a15.4 15.4 0 0 1-6.1-11.41c-.89-9.78 5.09-22.1 15.62-32.15a64.25 64.25 0 0 1 27-15.65 41.39 41.39 0 0 1 10.56-1.47 22.81 22.81 0 0 1 12.47 3.23 8.74 8.74 0 0 1 1 .69 15.7 15.7 0 0 1 6.16 12.1c.59 9.77-5.27 21.54-15.65 31.45z" fill="url(#M)" opacity=".69"/><path d="M276.48 177.49a10.5 10.5 0 0 1-2 4.81c-1.58 1.84-4.22 2.4-6 4a2.39 2.39 0 0 0-.6.77 2.16 2.16 0 0 0 1.24 2.45A4.29 4.29 0 0 0 274 189a18.65 18.65 0 0 0-2 1c-.28.18-.6.4-.63.74s.34.68.68.86a5.29 5.29 0 0 0 6-.82l-1.79 1c-.37.22-.78.53-.72.95s.34.52.63.66a5 5 0 0 0 5.7-1.09l-3.66 2.16a3.1 3.1 0 0 0 3 1.16 7.22 7.22 0 0 0 3.08-1.47 22.33 22.33 0 0 0 5-5c1.66-2.32 2.89-5.3 2-8s-3.81-4.37-6.45-5.66a17.65 17.65 0 0 0-6.24-2.13c-1.15-.09-1.56-.19-1.81.85s-.08 2.23-.31 3.28z" fill="url(#N)"/><path d="M188 165l-1.28 16.12-33-1.83-1.92-.18a3.1 3.1 0 0 1-1.47-.73c-3.16-2.53-6.87-11.25-6.06-21.37.94-11.77 23.51-45.93 23.51-45.93a30.15 30.15 0 0 1 5.35 4.19c11.14 11.09 4.52 24.81 4.52 24.81s-11.77 12.23-9.87 16.46S188 165 188 165z" class="B"/><path d="M183.17 254.8a15.78 15.78 0 0 1-3.62-.49l-.24-.07c-15-4.28-19.51-55.42-19.51-55.42h.1l35.44-5.17 4.42 12.72s3.8 48.52-16.59 48.43z" class="C"/><path d="M158.29 191.69l-.23-.08s.07-.14.23.08z" fill="url(#O)"/><path d="M185.34 254.31a7.68 7.68 0 0 1-2.17.49 8.21 8.21 0 0 1-3.86-.55 9 9 0 0 1-4-3.39c-4.08-6-11.28-19.12-13.79-40.12l-1.62-11.94 11.1-1.62c1.37 3.88 5.64 16.44 6.16 23.28.63 8.15-4.7 22.89 2.51 27.27s5.67 6.58 5.67 6.58z" fill="url(#P)"/><path d="M190.68 105.06a7.91 7.91 0 0 1-1.89 5.11c-2.78 2.81-10.2 3.43-13.92 4.51-.58.16-1.16.34-1.73.55a6.79 6.79 0 0 0-1.84 1 10.45 10.45 0 0 0-2.58 3.5l-13.38 24.81c-3 5.61-6.1 11.44-6.51 17.8-.34 5.35 1.24 10.65 1.47 16-3.15-2.53-6.87-11.25-6.06-21.37.94-11.77 23.52-45.93 23.52-45.93 1.87-5.65 22.56-6 22.56-6z" fill="url(#Q)"/><path d="M260 251.49c-4.7 4.71-24.46 4.71-28.69.94s-12.86-4.86-12.38-13.8l2.66-3.92s16.68.89 22.73-1.88c.35 1.64 4.34 3.47 4.86 4.07 2.82 3.3 15.48 9.88 10.82 14.59z" fill="url(#R)"/><use xlink:href="#d" class="B"/><use xlink:href="#d" fill="url(#S)"/><path d="M261.35 185c-16.68 15.91-39.58 21.84-51.06 13.2a15.4 15.4 0 0 1-6.1-11.41c-.89-9.78 5.09-22.1 15.62-32.15a64.22 64.22 0 0 1 27-15.65 41.26 41.26 0 0 1 10.55-1.47 22.9 22.9 0 0 1 12.45 3.23 10.4 10.4 0 0 1 1 .7 15.7 15.7 0 0 1 6.16 12.1c.62 9.74-5.24 21.5-15.62 31.45z" fill="url(#T)" opacity=".69"/><path d="M251.8 137.9L203.22 186s1.25 9.09 4.07 8.15l56-55.67a54.73 54.73 0 0 0-11.49-.58z" fill="url(#U)"/><use xlink:href="#e" class="B"/><use xlink:href="#e" fill="url(#V)"/><path d="M196.64 157.55a6.27 6.27 0 0 1 .42 5.45 44.07 44.07 0 0 1-2.45 5.09 5.07 5.07 0 0 0-.65 3.54 5.51 5.51 0 0 0 1.3 2c2 2.28 4.45 4.73 7.51 4.77 1.1 0 2.66 0 2.74 1.14a1.66 1.66 0 0 1-.46 1.1 7 7 0 0 1-5.16 2.6h5.17a1.18 1.18 0 0 1 1 .32 1.08 1.08 0 0 1 0 .93 7.53 7.53 0 0 1-5 5 7.3 7.3 0 0 0 2.79-.69 2.72 2.72 0 0 1-1.38 4.41c.67-.42 1.62-.83 2.17-.26s.13 1.47-.43 2c-2.4 2.28-6.55 1.13-8.89-1.23s-3.55-5.57-5.48-8.28c-1-1.44-2.26-2.74-3.16-4.26-5.99-10.25 3.95-17.04 9.96-23.63z" fill="url(#W)"/><use xlink:href="#f" class="B"/><use xlink:href="#f" fill="url(#X)"/><g class="B"><path d="M277.89 258v-4.2l-4.42-1.21a12.87 12.87 0 0 1-6.8-5.09 12.61 12.61 0 0 1-2-7.06h8.14c.37 3 1.84 5.19 5 6v-11.03l-4.87-1.43a11.49 11.49 0 0 1-4.73-2.7 9.27 9.27 0 0 1-2.63-5.12 13.16 13.16 0 0 1 .49-7.09 11.75 11.75 0 0 1 7.14-7.08 36.1 36.1 0 0 1 4.12-1.07l.49-.1v-5.5h7.61v5.27c0 .39.12.49.49.59a16.12 16.12 0 0 1 7.1 3.31 11.48 11.48 0 0 1 4 7.07l.29 2.32h-8.23a5.8 5.8 0 0 0-3.58-5.25v10.3l.88.21a29.42 29.42 0 0 1 6.49 2.08 9.38 9.38 0 0 1 5.63 7.84 12.26 12.26 0 0 1-2.15 9 12.43 12.43 0 0 1-6.14 4.54c-1.53.53-3.12.88-4.76 1.33V258zm7.64-21v9.6a7.05 7.05 0 0 0 3.37-1.47c1.76-1.48 2.38-5.07-.2-6.65a29.39 29.39 0 0 0-3.17-1.48zm-7.67-9.8v-9.27a26.43 26.43 0 0 0-2.91 1.47c-2.11 1.41-2.45 5.32.25 6.69.84.4 1.73.7 2.66 1.08z"/><use xlink:href="#g"/></g><use xlink:href="#g" fill="url(#Y)"/><path d="M314.86 228.44v-2.35l-2.45-.68a7.23 7.23 0 0 1-3.79-2.84 7 7 0 0 1-1.09-3.95h4.55a3.61 3.61 0 0 0 2.78 3.37v-6.18l-2.72-.8a6.48 6.48 0 0 1-2.65-1.5 5.36 5.36 0 0 1-1.47-2.87 7.31 7.31 0 0 1 .29-4 6.64 6.64 0 0 1 4-4 21 21 0 0 1 2.3-.59l.28-.06V199h4.26v2.94c0 .22.07.29.28.34a8.92 8.92 0 0 1 4 1.85 6.37 6.37 0 0 1 2.26 3.95l.16 1.3h-4.63a3.23 3.23 0 0 0-2-2.94v5.76l.49.12a16 16 0 0 1 3.63 1.16 5.25 5.25 0 0 1 3.14 4.38 6.84 6.84 0 0 1-1.2 5 7 7 0 0 1-3.44 2.55c-.85.29-1.74.49-2.66.74v2.26zm4.28-11.72v5.36a3.9 3.9 0 0 0 1.88-.83 2.35 2.35 0 0 0-.11-3.71 16.52 16.52 0 0 0-1.76-.82zm-4.29-5.5V206a14.69 14.69 0 0 0-1.63.83 2.24 2.24 0 0 0 .14 3.74c.47.23 1 .4 1.49.61z" class="B"/></svg>