<svg xmlns="http://www.w3.org/2000/svg" viewBox="0 0 1000 227.87" fill-rule="evenodd"  xmlns:v="https://vecta.io/nano"><path d="M107.022.179h91.754c8.062 0 13.615 4.638 15.05 12.542.093.869.093 2.11.093 3.042V211.99c0 9.303-6.019 15.88-14.678 15.88H14.453c-8.594 0-14.445-6.485-14.445-15.88V17.004C-.271 6.927 6.288-.091 15.628.001l91.392.177zm75.525 74.491h0c-5.086 10.768-12.885 18.132-22.516 23.853-1.642.941-2.37 1.201-2.902-1.073-1.978-6.485-4.227-12.878-6.429-19.093-4.442-13.148-8.463-26.463-13.279-39.545-2.678-6.561-7.297-10.936-13.681-12.776-8.529-2.548-17.224-2.548-26.022-1.679-11.713 1.317-19.241 6.933-23.188 19.307-7.456 23.645-15.557 47.235-23.415 70.712l-18.53 56.33c-1.67 4.918-2.37 10.106-1.278 15.192 2.016 9.902 11.452 17.852 21.285 18.224 11.107.599 18.971-5.01 22.115-15.686 1.997-6.419 4.208-12.98 5.617-19.465.933-4.918 3.443-8.072 7.185-10.442.373-.698 1.045-.931 1.876-1.399 11.209-7.802 23.787-9.908 37.001-10.406 1.568 0 1.568 1.195 1.773 2.344l10.874 39.097c2.575 9.201 8.323 14.287 17.456 15.696 13.718 2.268 28.874-10.004 26.295-26.555-.56-2.558-1.176-5.629-1.876-8.167l-11.545-34.357c-.373-1.643-.373-3.042.653-4.181 4.143-4.487 6.784-9.563 9.051-15.35 4.684-13.055 3.854-26.733 3.518-40.582m461.217 7.727c6.924-2.742 13.54-4.823 20.808-4.747 7.353 0 11.607 4.477 11.271 12.447 0 6.149-1.941 12.101-3.313 17.796 0 .596-.467 1.297 0 2.202 3.649-5.553 7.25-10.629 11.505-15.182 5.347-6.215 11.002-11.739 17.99-15.324 3.686-1.939 7.596-3.183 11.449-3.078 9.425.336 14.109 5.886 14.277 15.854.187 5.626-1.362 11.15-2.37 16.663-.28.971-.28 1.942-.56 3.94 2.277-3.071 3.919-5.685 5.86-8.427 6.383-8.763 13.612-17.318 22.777-23.04 5.142-3.246 10.629-5.326 16.723-4.72 7.764.869 11.805 5.616 12.045 14.119.373 6.389-1.176 12.437-2.146 18.727l-8.725 45.928c-.653 5.514-.653 10.712.653 15.788.653 2.874 1.773 5.162 3.947 7.364-7.092 4.645-14.688 7.96-23.27 6.12-6.271-1.475-9.649-6.287-10.274-13.651-.467-7.456 1.064-14.817 2.295-22.105l8.743-43.726c.28-1.037.28-1.83.28-2.706-.28-.971-.933-1.297-1.969-.645-1.512.55-2.781 1.613-3.779 3.088-9.303 11.301-16.638 24.113-23.448 37.158-3.378 6.597-6.392 13.585-9.098 20.34-2.24 6.057-4.526 12.348-1.213 18.507.653.931-.28.931-.746 1.389-6.187 2.35-12.588 3.855-19.537 2.452-6.056-1.409-8.995-6.765-7.866-14.023 1.437-9.191 3.984-17.964 5.757-26.921 2.949-12.242 5.487-24.261 7.129-36.701.373-1.837 1.801-4.207-.373-5.29-1.67-.931-3.247 1.251-4.423 2.548-7.922 8.773-13.773 18.931-19.362 29.373-4.88 9.138-9.061 18.234-13.137 27.8-2.753 6.287-4.656 12.502-1.484 19.373.653.931-.067.931-.56 1.389-6.392 2.35-13.046 4.023-19.399 2.35-7.857-1.837-10.975-8.23-8.631-17.328l10.336-42.784c2.165-10.712 3.938-21.469 4.647-32.612.187-3.144.84-7.157-2.809-9.704M389.984 164.95c0 12.18-9.409 20.745-19.474 19.876-8.398-.707-13.188-4.711-15.594-13.651-.933-3.677-2.305-7.456-3.406-11.301-.28-1.343-.747-2.275-2.482-2.275h-37.791c-1.838 0-2.212.866-2.715 2.173-1.129 3.855-2.51 7.456-3.275 11.133-3.219 13.214-13.809 15.594-21.911 13.316-10.133-2.976-15.423-12.542-12.447-23.645 3.219-11.505 7.362-22.608 11.077-33.919l21.74-66.104c3.406-10.666 9.163-16.459 19.932-17.43 5.897-.428 12.114-.428 18.039 1.317 6.588 1.231 10.935 5.682 13.239 12.44l14.649 44.183 18.336 55.195c1.138 3.348 2.006 6.933 2.081 8.694zm-72.869-38.294h23.488c1.941.336 2.24-.362 1.577-2.538l-8.771-29.972c-.84-3.779-2.034-7.203-3.107-11.14h-.467l-12.717 43.65m299.886 5.319c-.187 12.279.56 24.455-.187 36.559-1.437 14.191-14.119 22.013-25.298 15.686-1.932-.961-3.238-2.202-4.404-3.407-.747-1.409-1.409-1.241-2.613-.438-28.705 16.825-65.6-2.716-69.846-37.435-2.174-17.964 1.101-34.453 12.245-48.028 9.201-11.581 21.331-16.127 35.019-17.262 8.062-.431 15.721 1.501 22.816 5.682.97.698 1.67 1.083 2.585-.158 5.375-5.599 11.663-6.831 18.494-3.957 6.784 2.38 10.125 8.5 11.002 16.058.747 10.676.187 21.387.187 32.082v4.619zm-50.744 27.796h0c7.605 0 11.504-3.154 13.652-10.936 2.24-6.689 2.24-13.681 1.848-20.781-.28-5.514-.84-10.432-3.425-15.518-1.764-3.947-4.47-6.495-8.753-7.193-8.51-1.738-15.797 2.548-18.746 11.643-3.238 10.096-3.238 20.699 0 31.141 2.379 7.864 7.829 11.643 15.425 11.643"/><path d="M900.505 150.133c-4.815 6.561-9.135 13.493-14.52 19.271-5.991 7.101-12.512 13.418-21.48 15.357-4.012.869-7.698.935-11.366.168-8.743-1.847-13.082-8.332-14.35-16.927-2.678-14.451-.467-28.3 4.218-41.616 4.974-14.379 12.97-26.921 23.981-36.727 13.447-12.009 28.356-14.185 44.881-6.926.746.273 1.904 1.682 2.109-.336 1.008-6.689 2.547-13.342 1.904-20.268-.467-4.543-.467-4.543 3.854-6.715 4.918-2.38 9.863-3.519 15.453-3.259 8.295.609 12.541 6.021 11.041 14.557-1.838 9.902-4.246 19.801-6.28 29.432-3.816 17.634-7.474 34.897-9.741 52.693-1.176 9.695-1.176 19.698 3.005 28.731.56.971.093 1.297-.653 1.837-7.129 5.965-15.254 8.062-23.885 4.556-5.888-2.614-8.566-8.065-9.07-14.622-.56-6.215.467-12.72.84-19.205zm-32.119-1.063h0c-.093 2.472 0 5.076.373 7.548.746 4.888 3.182 5.794 6.718 2.726 3.611-2.726 6.019-6.495 8.538-10.274 8.156-11.041 14.144-23.385 20.929-34.861 4.591-7.558 4.246-8.259-2.837-13.148-.093-.263-.373-.468-.467-.691-7.894-5.366-14.52-4.125-20.146 3.733-1.064 1.241-1.764 2.548-2.407 4.049-5.813 12.888-9.797 26.361-10.703 40.918m-375.786-10.416v26.736l-.187 5.316c-1.764 9.668-8.333 14.922-17.496 14.119-9.965-.707-15.91-7.426-16.088-17.858-.373-8.437 0-17.2-.28-25.858l.28-31.641c0-2.018-.28-2.986-2.538-3.315-4.451-.372-8.1-2.314-10.737-6.429-4.208-7.624 0-16.393 8.435-18.128 4.544-.879 4.843-.879 4.544-5.889 0-4.115 0-8.23.84-11.982 1.876-9.395 7.288-15.686 15.554-19.027 10.402-3.957 20.574-3.779 31.174-.26 6.896 1.998 10.705 7.456 10.267 14.211-.28 6.215-3.779 9.8-9.734 9.639-2.706 0-5.207-.372-7.726 0-4.05.329-5.953 2.538-6.224 6.992-.187 5.784-.187 5.876 5.188 5.784 2.277 0 4.787.092 7.054.534 5.487 1.136 9.238 5.346 9.51 11.571.373 5.952-2.445 10.076-7.96 12.177-3.816 1.307-7.568 1.139-11.479 1.139-1.941-.329-2.314.372-2.314 2.443v29.729m-91.304-24.981V61.253c0-9.359 5.524-16.815 12.884-18.727 10.771-3.015 19.775 3.911 21.641 15.649.187 2.117.467 4.161.467 6.429v97.613c0 2.732-.28 5.514-1.036 8.249-2.379 9.273-8.594 14.724-17.224 14.461-8.239-.27-14.53-6.129-16.265-15.524-.56-2.604-.56-5.685-.56-8.223v-47.505zm582.652 64.589c-7.558 5.695-15.492 8.233-24.251 6.663-6.625-.968-10.573-6.222-10.909-13.846-.84-7.894 1.241-15.594 2.846-23.161 2.911-14.613 6.588-28.899 8.995-43.614.998-5.346 1.54-11.067.373-16.591 0-.774-.093-1.633-.467-2.278-1.409-3.674-1.409-3.674 2.435-4.72 6.597-1.932 13.286-3.769 20.202-3.068 8.295 1.567 11.541 6.765 9.405 15.152-2.781 10.804-5.748 21.575-8.034 32.52-2.529 11.067-4.778 21.901-5.953 33.31-.067 3.081-.067 6.057.187 8.865.746 4.181 1.81 7.858 5.151 10.768"/><path d="M802.993 95.274c0-5.178-.467-8.595-2.277-12.009-.373-.869-.187-1.231.746-1.669 8.034-2.643 16.189-4.984 24.718-3.239 6.457 1.231 9.358 6.215 7.596 13.474-1.941 9.51-4.442 18.494-6.756 27.892-2.846 12.252-5.487 25.064-7.026 37.606-.467 5.083-.28 10.169 1.241 15.152.467.971.746 1.837 1.269 2.874.84 1.073 2.24 2.304 1.969 2.808-.56 1.85-2.24 2.38-3.378 2.923-5.617 3.134-11.206 4.813-17.497 4.283-9.126-.981-13.707-6.225-13.875-16.229-.033-7.426 1.81-14.882 3.275-22.414 2.818-14.481 6.793-28.768 9.201-43.482.373-2.986.56-6.393.84-7.97m25.772-52.749h1.782c8.725.595 12.141 6.129 9.863 15.06-1.138 4.375-3.443 7.018-7.521 8.325-4.927 1.399-9.639 2.706-14.856 2.097-7.026-1.297-9.033-3.937-7.362-11.403.933-3.042 1.642-6.12 0-9.359-.746-1.139.933-.971 1.409-1.139 5.515-2.443 10.935-3.516 16.682-3.582m140.401 3.912c7.558-2.772 15.182-5.142 23.014-3.407 6.261 1.063 8.865 5.952 7.362 12.614-.933 5.283-3.313 9.128-8.967 10.425-4.88 1.343-9.695 2.548-14.744 1.847-5.925-1.475-7.904-4.191-6.224-10.396.093-1.343.373-2.752.746-4.049.56-2.288.28-4.553-1.204-7.035"/><path d="M182.547 74.67c.373 13.849 1.166 27.527-3.518 40.582-2.267 5.787-4.908 10.863-9.051 15.35-.98 1.139-.98 2.538-.653 4.181l11.545 34.357c.653 2.538 1.278 5.609 1.876 8.167 2.575 16.551-12.578 28.823-26.295 26.555-9.135-1.409-14.883-6.495-17.457-15.696-3.975-13.046-7.325-25.95-10.873-39.097-.187-1.149-.187-2.344-1.773-2.344-13.214.497-25.793 2.604-37.001 10.406-.84.467-1.53.701-1.876 1.399-3.742 2.37-6.289 5.524-7.185 10.442-1.409 6.485-3.621 13.046-5.617 19.465-3.145 10.675-11.008 16.285-22.115 15.686-9.832-.372-19.267-8.322-21.285-18.224-1.092-5.086-.373-10.274 1.278-15.192l18.53-56.33 23.415-70.712c3.947-12.374 11.476-17.99 23.188-19.307 8.799-.869 17.496-.869 26.022 1.679 6.383 1.84 11.004 6.215 13.681 12.776 4.815 13.082 8.837 26.397 13.279 39.545 2.202 6.215 4.451 12.608 6.429 19.093.56 2.275 1.26 2.015 2.902 1.073 9.632-5.721 17.434-13.085 22.516-23.853zm-91.323 52.581h0c7.904-7.351 16.394-11.999 25.457-15.143 1.978-.438.84-1.784.56-2.64l-9.369-32.428c-.093-.961-.093-1.995-1.26-2.808l-15.397 53.019" fill="#fff"/><path d="M91.224 127.251l15.397-53.019c1.138.813 1.138 1.847 1.26 2.808 3.285 10.778 6.224 21.545 9.369 32.428.28.856 1.409 2.202-.56 2.64-9.061 3.144-17.552 7.792-25.456 15.143"/></svg>