<svg xmlns="http://www.w3.org/2000/svg" viewBox="0 0 1000 320.118"  xmlns:v="https://vecta.io/nano"><path d="M189.088.021c-14.038 0-22.216 10.825-22.216 26.332v118.641c0 15.162 8.178 26.148 22.216 26.148 13.772 0 22.314-10.986 22.314-26.148V26.352c0-15.507-8.543-26.332-22.314-26.332m104.403 46.984h-10.467v-6.508c0-7.302 4.253-10.378 15.506-9.1 11.975 1.114 14.666-6.508 14.666-12.596 0-4.71-1.378-7.101-5.011-11.318-7.757-7.693-27.39-7.465-27.39-7.465s-17.796-.821-29.864 8.762c-12.019 9.328-10.97 26.313-10.97 26.313v11.91h-1.926c-7.986 0-16.467 4.974-16.467 15.178 0 10.278 9.621 14.989 17.342 14.989h1.05v70.807c0 12.177 7.466 23.164 22.188 23.164 15.024 0 20.875-10.641 20.875-22.477V77.169h10.467c5.787 0 17.279-2.82 17.279-14.393 0-12.014-9.063-15.774-17.279-15.774"/><path d="M419.072 43.082c-7.201 0-12.96 3.24-16.731 8.151-6.927-4.81-16.054-8.151-26.695-8.151-45.345 0-65.434 34.089-65.434 67.002 0 35.238 24.407 62.5 65.434 62.5 9.72 0 19.084-3.24 26.64-8.214 3.696 5.038 9.492 8.214 16.786 8.214 14.102 0 22.142-10.869 22.142-26.212V69.386c0-15.079-8.041-26.303-22.142-26.303zm-64.819 65.302h0c0-28.038 13.607-33.01 22.742-33.01h1.141c10.503.821 18.775 7.822 18.775 34.224 0 25.978-8.963 31.181-18.257 31.699h-1.406c-10.432 0-22.999-4.974-22.999-32.913m-204.562 29.053c-2.309-6.937-39.778-113.76-41.639-118.799-2.063-5.066-3.961-8.735-8.488-11.9-7.484-5.678-23.51-5.34-23.51-5.34s-15.81-.365-23.431 5.339c-4.454 3.167-6.352 6.836-8.315 11.9-1.898 5.038-39.365 111.864-41.948 118.799-2.099 6.781-3.916 15.088 0 21.859 4.299 6.343 11.389 11.846 20.552 11.846 9.292 0 17.535-4.034 21.132-15.349l5.339-17.233h53.485l5.275 17.233c3.532 11.318 11.975 15.349 21.013 15.349 9.508 0 16.775-5.504 20.536-11.846 4.071-6.772 2.492-15.078 0-21.859zm-90.233-35.67h0L76.05 47.59l16.646 54.177zM941.716 299.79H0v20.327h941.716c28.897 0 53.101-21.242 57.519-48.758-12.95 17.313-34.024 28.431-57.519 28.431m58.24-72.24v-16.292H58.415C26.271 211.258 0 237.551 0 269.724v16.293h941.716c32.201 0 58.24-26.333 58.24-58.466M633.642 41.765c-23.824 0-46.987 31.899-55.201 44.241.365-2.811.977-7.101 2.291-12.004 1.734-8.123 3.24-19.631-2.291-26.412-3.24-3.925-8.014-5.823-14.422-5.823-22.059 0-43.855 28.142-53.173 41.913l3.304-11.974c1.442-6.772 4.29-17.332-.274-23.486-2.72-3.797-7.201-5.504-13.553-5.504-10.378 0-21.923 4.874-22.407 4.874l-2.355 1.059 2.154 1.269s3.176 3.176.73 19.988c-4.189 29.552-13.836 64.783-17.596 78.758-2.163 7.128-1.835 12.95 1.013 16.81 3.003 3.934 8.47 6.188 15.291 6.188 9.509 0 18.154-3.176 18.637-3.633l1.406-.365-1.114-1.433c0-.091-4.965-7.466 1.579-21.795 22.05-49.051 39.878-68.583 44.859-71.915 1.177-.548 1.862-1.205 2.711-1.205.548 0 .821.365.821.639.548.274.639 1.479.548 2.583-1.798 17.049-8.999 45.519-13.633 64.557-.995 4.354-2.063 7.895-2.629 10.87-1.698 7.293-1.132 12.95 1.634 16.711 2.756 3.112 7.21 4.91 13.516 4.91 9.886 0 18.628-3.633 18.984-3.696l1.798-.73-1.342-1.214c0-.456-4.773-6.681 1.926-21.849 16.298-37.731 38.313-67.211 44.037-71.5 1.935-1.36 2.921-1.533 3.505-1.533.183 0 .274 0 .639.548.456.456.639 2.072.456 4.025-.091.73-.73 3.076-1.241 6.572-3.267 13.059-9.063 40.058-12.239 58.842-1.898 11.217-.977 19.621 3.176 24.406 3.368 3.861 8.643 6.115 15.052 6.115 11.189 0 21.531-6.973 21.985-7.229l1.634-1.114-1.497-1.013s-7.922-7.466-4.034-29.481c2.756-14.759 6.316-31.735 8.999-44.077l2.784-14.138.183-1.104c1.433-6.772 3.596-19.139-2.264-26.148-3.103-4.052-7.785-5.595-14.292-5.595m139.121 1.409c-6.763 0-12.267 1.807-16.028 5.458-2.756-1.698-12.148-6.772-24.477-6.772-7.037 0-17.381 1.314-28.989 8.671-12.888 7.986-23.759 20.745-32.62 38.216-20.053 39.101-10.441 67.658-5.403 74.668 4.39 6.088 10.468 8.835 19.238 8.835 12.403 0 28.895-4.874 54.052-44.402-.73 5.568-1.561 13.389-1.561 20.06 0 21.531 15.168 23.849 21.421 23.849 16.2 0 21.85-7.557 21.895-7.813l.639-.821-.639-.821c-.182-.274-7.548-7.795-2.702-47.843C782.357 76.215 795.6 49.912 795.6 49.59l.639-1.059-1.123-.73c-.456-.183-11.381-4.71-22.243-4.71zm-69.986 99.757h0c-3.304 0-5.066-5.659-5.066-11.582 0-6.416 3.204-43.355 18.839-62.301 3.468-3.687 7.594-6.015 11.711-6.015 10.013 0 19.377 10.722 21.695 13.481-12.139 24.671-29.188 50.226-41.32 62.749-2.227 2.492-4.381 3.669-5.86 3.669M897.16 41.765c-17.516 0-38.545 28.989-47.445 42.435 1.469-5.814 3.633-14.386 5.294-22.281 1.15-5.914.365-10.533-1.926-13.636-3.012-3.395-7.977-5.202-14.921-5.202-9.939 0-21.943 4.344-22.371 4.509l-1.743.73 1.543 1.314c0 .183 3.24 4.773 1.241 20.903-2.784 17.571-13.965 61.38-18.681 79.115-2.163 7.128-1.634 12.329.986 16.025 3.989 5.403 11.746 6.024 17.084 6.024 9.082 0 18.118-3.176 18.511-3.633l1.734-.365-1.041-1.433c-.065-.091-4.326-6.882.639-19.998 13.379-33.769 28.248-53.494 37.174-60.265 2.063-1.442 4.162-2.327 6.225-2.327 4.901 0 8.014 5.504 8.014 5.504l.73 1.378 1.086-1.114c4.673-4.646 13.015-14.506 16.055-23.402 2.099-5.33 4.819-14.814.73-20.317-1.698-2.747-4.737-3.961-8.926-3.961m101.137 15.871c-4.91 1.698-16.978 2.811-33.177 2.811h-4.344c.73-4.189 3.66-16.028 6.836-27.253 1.999-6.772 1.771-12.332-1.086-15.929-2.811-3.441-7.42-4.983-14.422-4.983-9.821 0-23.956 4.39-24.506 4.646l-2.099.639 1.807 1.643c5.421 5.549-.456 32.292-2.985 42.232-.274.548-14.065 53.594-14.065 78.947 0 21.267 11.646 31.809 33.96 31.809 10.407 0 25.585-2.811 35.788-11.655 4.454-3.852 6.416-9.354 5.239-15.178-.639-4.18-2.711-7.457-2.711-7.621l-.73-1.542-1.305 1.214c-.182 0-4.774 4.518-13.948 7.621-3.459 1.013-6.179 1.707-8.99 1.707-2.948 0-5.431-1.214-7.758-3.176-5.166-5.303-1.835-24.242-.73-30.33 1.734-9.618 5.978-27.517 6.9-31.999l9.292-.065 9.975.065c19.203.365 24.58-14.558 24.77-22.443v-1.971z"/></svg>