<?xml version="1.0" encoding="utf-8"?>
<svg viewBox="2.64 5.382 170.851 49.945" xmlns="http://www.w3.org/2000/svg">
  <path d="M2.64 22.756l14.414 18.182L2.64 52.882V22.756zm5.801 30.126l10.845-9.073 7.496 9.073H8.441zM2.64 13.027l3.761 4.758L21.866 37.11l5.011-3.991s-4.16-4.898-6.954-10.364C14.462 12.07 18.329 5.417 18.329 5.417H2.64v7.61zm21.431 27.067l5.104-4.216s4.874 6.416 10.526 7.931c7.407 1.985 10.686-2.871 10.686-2.871v11.944H34.119l3.668-3.172s-1.914 1.276-6.595-1.966c-2.763-1.914-7.122-7.65-7.122-7.65z"/>
  <path d="M24.54 5.382s-1.628 2.218-.469 7.645c1.239 5.801 6.165 11.94 6.154 11.802 0 0 .317-6.096 3.894-9.673 7.625-7.625 16.268-3.086 16.268-3.086V5.417L24.54 5.382zm25.847 14.727s-4.822-4.13-9.015-4.13c-5.363 0-8.29 4.63-8.29 7.989 0 4.892 2.348 7.61 4.705 9.967 3.387 3.387 7.507 7.04 12.6 4.1V20.109zM105.304 5.88h11.379s10.08 15.263 15.035 21.569l10.287 13.489V9.298c0-1.367-3.588-3.418-3.588-3.418h13.122s-4.306 1.769-4.306 3.418v46.029s-4.131-2.291-8.816-7.735c-5.264-6.117-23.988-30.811-23.988-30.811v31.985c0 1.638 3.588 4.116 3.588 4.116h-12.712s3.485-2.498 3.485-4.116V9.298c0-1.453-3.485-3.418-3.485-3.418zm53.583 0h14.604s-3.922 1.858-3.922 3.418v39.468c0 1.705 3.922 4.116 3.922 4.116h-14.604s3.651-2.465 3.651-4.116V9.298c0-1.5-3.651-3.418-3.651-3.418zm-96.55 0s3.786 1.888 3.786 3.418v39.468c0 1.678-3.786 4.116-3.786 4.116h21.636c1.352 0 16.497-2.477 16.497-14.153s-11.765-12.77-11.765-12.77 7.167-1.992 7.167-9.981c0-8.611-10.548-10.098-11.9-10.098H62.337zm11.494 19.306V10.491h8.79c1.352 0 6.085 1.579 6.085 7.437 0 4.828-4.733 7.258-6.085 7.258h-8.79zm0 3.854h10.142c1.352 0 9.331 2.072 9.331 8.994 0 7.057-7.978 9.558-9.331 9.558H73.831V29.039z"/>
</svg>