<svg xmlns="http://www.w3.org/2000/svg" viewBox="0 0 126 29.664"  xmlns:v="https://vecta.io/nano"><defs><clipPath id="A"><path d="M0 0h595.276v841.89H0V0z"/></clipPath><clipPath id="B"><path d="M0 0h595.276v841.89H0V0z"/></clipPath></defs><g clip-path="url(#A)" transform="matrix(1.25 0 0 -1.25 -91.5079 338.51487)"><path d="M100.481 264.856h5.432c2.2 0 3.84-.964 3.84-2.995 0-1.489-.761-2.318-2.081-2.758v-.034c1.574-.322 2.386-1.168 2.386-2.606 0-2.826-2.488-3.418-4.603-3.418h-4.974v11.811zm3.147-4.671h.88c1.032 0 2.099.254 2.099 1.253 0 1.082-1.016 1.184-2.066 1.184h-.913v-2.437zm0-4.907h.931c1.151 0 2.352.17 2.352 1.371 0 1.286-1.235 1.404-2.319 1.404h-.964v-2.775z"/></g><path d="M51.228 7.445h4.822l5.69 14.764h-4.315l-1.1-3.151h-5.541l-1.164 3.151h-3.998l5.605-14.764zm2.411 3.046h-.043l-1.904 5.775h3.703l-1.756-5.775zm8.649-3.046H67.3l4.992 10.026h.041l-.062-10.026h3.596v14.764H70.98l-5.16-10.09h-.041l.125 10.09h-3.616V7.445zm14.915 0h3.934v6.029h.042l4.441-6.029h4.737l-5.456 6.874 5.88 7.89h-5.014l-4.589-6.705h-.042v6.705h-3.934V7.445z"/><g clip-path="url(#B)" transform="matrix(1.25 0 0 -1.25 -91.5079 338.51487)"><path d="M149.734 264.856h5.432c2.199 0 3.841-.964 3.841-2.995 0-1.489-.761-2.318-2.081-2.758v-.034c1.574-.322 2.385-1.168 2.385-2.606 0-2.826-2.487-3.418-4.602-3.418h-4.975v11.811zm3.147-4.671h.88c1.033 0 2.098.254 2.098 1.253 0 1.082-1.014 1.184-2.064 1.184h-.914v-2.437zm0-4.907h.931c1.15 0 2.352.17 2.352 1.371 0 1.286-1.235 1.404-2.318 1.404h-.965v-2.775zm7.129 9.578h5.618c2.098 0 3.807-.948 3.807-2.979 0-1.573-.744-2.622-2.267-2.977v-.034c1.014-.271 1.082-1.168 1.675-2.606l1.15-3.215h-3.282l-.677 2.131c-.643 2.031-1.05 2.54-2.217 2.54h-.66v-4.671h-3.147v11.811zm3.147-4.907h.829c1.016 0 2.302.034 2.302 1.371 0 1.099-1.1 1.302-2.302 1.302h-.829v-2.673z"/></g><path d="M122.067 7.445h3.934v14.764h-3.934V7.445zM25.115 0H4.527C2.027 0 0 2.076 0 4.638v20.39c0 2.536 1.989 4.599 4.456 4.636h20.648c2.5 0 4.528-2.075 4.528-4.636l.009-20.39C29.64 2.076 27.615 0 25.115 0M6.973 27.288L5.85 27.3c-1.36 0-2.462-1.117-2.462-2.496l-.006-.196V5.778l.008-1.015c.05-1.334 1.064-2.407 2.39-2.407h2.284c2.07 0 3.747 1.8 3.747 3.921 0 1.05-.411 2.003-1.077 2.695l-5.826 5.913 5.461 5.561c.704.726 1.129 1.679 1.129 2.723 0 2.275-2.025 4.119-4.525 4.119m16.789-.019l-10.181-.004s1.176-2.544 1.176-4.119c0-1.921-.641-3.636-1.646-4.771l-3.482-3.55 3.554-3.673c1.059-.994 1.761-2.759 1.761-4.77 0-1.593-.44-3.002-1.149-4.026h2.466c2.07 0 3.749 1.8 3.749 3.921 0 1.05-.411 2.003-1.078 2.695l-5.715 5.851 11.87 12.104c-.376.236-.85.341-1.325.341m2.486-3.779l-8.506-8.67 4.051-4.117c.824-1.031 1.348-2.584 1.348-4.32 0-1.602-.446-3.049-1.161-4.072l1.813.055c1.36 0 2.463 1.118 2.463 2.496L26.25 23.49z"/></svg>