<svg xmlns="http://www.w3.org/2000/svg" viewBox="0 0 1084 166"  xmlns:v="https://vecta.io/nano"><path d="M0 0h165.25l-.01 165.24L0 165.25V0m22.01 31.02l38.83 51.46-38.77 51.47 87.98.06 39.21-51.55-.25.01L110.12 31c-29.37.02-58.74-.03-88.11.02zm199.24 17.27c9.84-12.27 24.97-20.15 40.69-21.04 14.89-1.15 30.04 4.08 41.23 13.93l-15.2 15.2c-8.61-6.98-20.57-9.73-31.29-6.67-11.96 3.14-21.56 13.36-24.23 25.4-3.26 13.07 1.45 27.92 12.2 36.2 12.28 10.05 31.33 9.54 43.4-.61l15.16 15.26c-9.99 8.68-22.98 13.9-36.24 14.06-16.71.46-33.45-6.89-44.36-19.56-7.63-8.69-12.49-19.79-13.58-31.31-1.53-14.52 2.94-29.57 12.22-40.86zm102-18.04l21.74-.01L345 137c-7.25 0-14.5.01-21.75-.01V30.25zM371 30l21.16-.03 37.55 67.95 37.2-67.93 21.34.01-.06 106.79c-7.24-.11-14.47.02-21.71-.07l.03-63.19-37.04 64.09-36.74-64.07.02 63.2c-7.25 0-14.49-.01-21.74.01L371 30zm142.01.24l44.03.01c6.79.13 13.76 1.56 19.56 5.25 14.01 8.56 17.23 30.79 5.53 42.57-1.5 1.6-3.28 2.92-5.05 4.2 6.67 3.51 11.79 10.02 13.03 17.52 1.81 10.12-.5 21.74-8.35 28.88-6.26 5.99-15.16 8.15-23.6 8.26L513 137l.01-106.76m21.74 19.51V73l19.22-.01c3.73-.07 7.76-.85 10.49-3.6 3.88-4.12 3.98-11.07.53-15.49-2.65-3.19-7.03-4.18-11-4.16l-19.24.01m0 42.76v24.74l21.21.02c3.31.1 6.79-.83 9.27-3.12 4.94-4.76 5.03-13.63-.01-18.35-2.72-2.58-6.62-3.25-10.23-3.3-6.75-.01-13.5 0-20.24.01zm100.49-62.5c3.63.04 7.26-.13 10.89.05 1.66 1.29 2.59 3.31 3.92 4.93l59.71 81.67-.01-86.66H721v106.5c-3.79 0-7.58-.01-11.36.02L646.5 49.71v86.78c-3.78-.01-7.56.08-11.32-.08l.06-106.4zM749 30h11.25v106.48l-11.24.02L749 30zm28.57 107.22l39.01-106.49 15.59.02L869.3 136.5c-4.42-.01-8.84.01-13.25-.01l-10.02-28.25-44.05.01-9.72 29.01c-4.9-.04-9.8.02-14.69-.04m28.91-41.74l35.08.02-17.4-51.3-17.68 51.28zm87.79-47.3c8.88-9.14 20.76-15.71 33.57-16.89 15.79-1.59 31.51 4.27 44.28 13.26l-7.58 9.59c-4.25-6.05-11.78-8.31-18.57-10.14-11.81-3.25-25.21-1.49-35.18 5.84-9.01 6.8-15.03 17.13-17.42 28.08-1.35 11.32-.23 23.68 6.49 33.26 2.31 3.62 5.99 5.95 9.14 8.76 6.68 5.45 15.44 7.92 23.98 7.84 10.51.1 20.91-2.59 30.52-6.72l-.01-32.82H938.5l-.01-9.96 35.5-.04.01 50.75c-11.29 6.3-24.23 8.94-36.97 10.21-13.49.28-27.58-3.18-38.08-11.99-10.26-8.43-16.25-21.26-18.01-34.26-1.35-15.82 2.67-32.67 13.33-44.77zm97.77 88.93l38.93-106.35 15.61-.05 35.54 101.07c.56 1.51.87 3.09 1 4.71l-12.53.02-10.03-28.25c-14.74-.02-29.48-.03-44.21.01l-9.62 28.96c-4.9-.03-9.8.16-14.69-.12m46.54-92.84l-17.6 51.26 34.96-.02-17.36-51.24z"/><path d="M22.01 31.02l88.11-.02 38.89 51.47-88.17.01-38.83-51.46z" fill="#c7c7c7"/><path d="M60.84 82.48l88.42-.02-39.21 51.55c-29.33-.06-58.65.06-87.98-.06l38.77-51.47z" fill="#8d8d8d"/></svg>