<svg xmlns="http://www.w3.org/2000/svg" viewBox="0 0 221.748 65.299"  xmlns:v="https://vecta.io/nano"><path d="M.729 44.687L.5 36.426h6.041l.286 4.108h.169c1.365-2.167 3.873-4.736 8.546-4.736 3.649 0 6.495 2.056 7.69 5.129h.118c.968-1.537 2.105-2.676 3.415-3.471 1.539-1.082 3.309-1.657 5.585-1.657 4.615 0 9.285 3.134 9.285 12.029v16.349H34.8v-15.33c0-4.611-1.595-7.35-4.957-7.35-2.393 0-4.161 1.71-4.9 3.706-.17.678-.341 1.538-.341 2.33v16.641h-6.837V48.102c0-3.866-1.536-6.605-4.787-6.605-2.616 0-4.382 2.051-5.015 3.987-.283.682-.398 1.483-.398 2.278v16.412H.729V44.687zm67.543 12.822c0 2.505.112 4.953.396 6.665h-6.325l-.455-3.075h-.172c-1.71 2.167-4.616 3.7-8.199 3.7-5.588 0-8.72-4.041-8.72-8.26 0-7.013 6.205-10.539 16.466-10.484V45.6c0-1.824-.744-4.844-5.644-4.844-2.736 0-5.584.856-7.464 2.05l-1.366-4.558c2.051-1.255 5.64-2.453 10.025-2.453 8.891 0 11.457 5.646 11.457 11.681v10.031zm-6.84-6.891c-4.959-.116-9.685.965-9.685 5.181 0 2.735 1.77 3.99 3.989 3.99 2.787 0 4.842-1.829 5.469-3.821a5.1 5.1 0 0 0 .227-1.536v-3.814zm11.681-5.931l-.224-8.261h6.147l.341 4.165h.174c1.195-2.168 4.216-4.794 8.83-4.794 4.845 0 9.856 3.134 9.856 11.913v16.465h-7.006V48.509c0-3.991-1.485-7.012-5.3-7.012-2.789 0-4.73 1.994-5.469 4.104-.226.626-.285 1.48-.285 2.275v16.299h-7.065V44.687zm55.506-19.407v31.088l.229 7.806h-6.264l-.285-4.385h-.116c-1.653 3.076-5.015 5.01-9.058 5.01-6.611 0-11.849-5.64-11.849-14.181-.06-9.29 5.75-14.82 12.418-14.82 3.815 0 6.551 1.595 7.804 3.654h.116V25.28h7.005zm-7.005 22.711a9.75 9.75 0 0 0-.172-1.825c-.626-2.729-2.845-4.953-6.038-4.953-4.501 0-7.011 3.989-7.011 9.173 0 5.066 2.51 8.773 6.956 8.773 2.843 0 5.353-1.938 6.035-4.959.174-.625.23-1.311.23-2.05v-4.159zm11.962-11.564h7.069v27.748h-7.069V36.427zm12.02 8.946l-.224-8.947h6.096l.224 5.294h.231c1.368-3.926 4.613-5.294 7.581-5.294.68 0 1.079-.114 1.646 0v6.156c-.567-.115-1.192-.227-2.048-.227-3.365 0-5.645 2.164-6.27 5.292-.11.629-.226 1.373-.226 2.171v14.356h-7.011V45.373zm18.807-8.946h7.06v27.748h-7.06V36.427zm-1.444-33.592l-18.113 10.384c-5.204 2.145-9.19-.468-10.481-2.382h0a1.59 1.59 0 0 1-.152-.23h0l-.17-.291-.879-1.435a25.07 25.07 0 0 0-1.271-1.829h0c-.428-.547-.903-1.09-1.419-1.614h0c-3.34-3.376-8.686-5.747-17.593-1.511h0L85.799 19.405l4.744 5.825c1.995 1.901 5.748 5.02 11.553 2.39h0l16.083-9.304c13.696-7.516 20.456-.334 23.442 4.454h0c.104.148.19.311.281.456h0l.007.006c.035.058.061.113.09.168h0l.341.554c1.453 2.206 3.751 3.631 6.486 3.566h0c1.51-.03 2.535-.522 4.025-1.351h0l15.501-8.99c.01-.005.017-.011.034-.014h0c13.865-7.608 20.738.044 23.674 4.83h0c.227.415.49.809.752 1.179h0c1.452 1.97 3.459 3.261 6.004 3.197h0c1.68-.034 3.568-1.042 3.845-1.227h0l18.586-10.724s-1.901-2.867-5.811-7.339h0c-3.496-3.989-7.215-2.184-10.169-.715h0c-1.241.613-10.214 5.699-10.214 5.699h0c-4.915 2.027-8.744-.185-10.246-2.046h0c-.155-.197-.289-.38-.391-.56h0l-.346-.606c-.539-.909-1.181-1.934-1.972-2.946h0a16.75 16.75 0 0 0-1.415-1.616h0c-2.066-2.087-4.892-3.789-8.849-3.79h0c-2.484 0-5.41.67-8.875 2.335"/></svg>