<svg xmlns="http://www.w3.org/2000/svg" viewBox="0 0 268.162 67.549"  xmlns:v="https://vecta.io/nano"><defs><clipPath id="A"><path d="M328.819 730.323h215.433v56.291H328.819v-56.291z"/></clipPath><clipPath id="B"><path d="M496.948 769.093l-.056-1.092 20.973-24.604.753-.122.095.047.368.682-8.944 29.937-1.518 1.024-11.671-5.872z"/></clipPath><clipPath id="C"><path d="M328.819 730.323h215.433v56.291H328.819v-56.291z"/></clipPath><clipPath id="D"><path d="M529.422 774.901l-8.969-40.487.317-.76.15-.068 1.016.267 22.255 33.711-.025 1.759-13.561 6.235-1.183-.657z"/></clipPath><clipPath id="E"><path d="M328.819 730.323h215.433v56.291H328.819v-56.291z"/></clipPath><clipPath id="F"><path d="M510.431 786.189l-.541-1.04 9.592-27.649.57-.384.017-.001.527.307 8.318 27.791-1.122 1.164-17.361-.188z"/></clipPath></defs><g transform="matrix(1.25 0 0 -1.25 -412.57599 983.4718)"><g clip-path="url(#A)"><path d="M442.246 735.638l.054 1.584v13.904l-.045 1.349-.039.584a1.34 1.34 0 0 1-.07.287c-.104.343-.335.585-.682.73-.32.135-.793.2-1.407.205v.473h7.94c1.154-.002 2.197-.077 3.128-.227s1.679-.355 2.252-.617c1.66-.787 2.48-2.112 2.471-3.997.019-2.694-1.753-4.415-5.421-4.858l-.615-.099c.825-.03 1.941-.305 2.46-.425a6.38 6.38 0 0 0 1.515-.566c1.947-.978 2.906-2.542 2.887-4.705.01-2.627-1.271-4.335-3.871-5.142-.568-.162-1.28-.29-2.141-.383a26.87 26.87 0 0 0-2.813-.143h-7.792v.474c.917.011 1.548.151 1.827.48a1.03 1.03 0 0 1 .255.376c.056.143.089.387.107.716m2.446 18.466v-8.824h3.098c3.603.021 5.469 1.518 5.489 4.515.025 2.909-1.942 4.329-5.755 4.309h-2.832zm9.207-14.608c-.02 2.057-.764 3.511-2.247 4.324-.45.23-1.022.407-1.709.532s-1.443.187-2.271.19h-2.98v-10.299h2.98c2.159-.01 3.737.393 4.709 1.238.493.405.867.955 1.127 1.645s.388 1.482.391 2.37" fill-rule="evenodd"/><path d="M468.038 734.196c-.161.319-.274.698-.323 1.667l-.014.287-.191-.215c-.227-.257-.45-.479-.668-.668s-.473-.386-.758-.584c-.627-.46-1.231-.784-1.81-.973s-1.232-.28-1.959-.274c-1.266-.005-2.238.295-2.933.886-.389.35-.694.789-.917 1.322s-.337 1.104-.342 1.718c.015 2.264 1.405 3.725 4.248 4.372l2.383.429 2.852.276.109 1.975c.002.675-.031 1.222-.097 1.639-.066.422-.175.79-.328 1.101-.422.822-1.282 1.216-2.525 1.216-1.994.01-3.075-.939-3.187-2.827-.012-.3-.04-.511-.079-.639a.51.51 0 0 0-.195-.274c-.198-.133-.514-.21-.968-.215-.977-.015-1.343.276-1.327.765.006.512.176 1.007.517 1.484s.816.895 1.43 1.25c1.104.612 2.518.924 4.252.929 1.897-.005 3.169-.435 3.864-1.256.281-.346.49-.773.626-1.29s.204-1.172.203-1.969l-.003-.169-.015-.772-.041-2.039-.03-2.804-.029-1.358.073-1.671c.044-.531.234-1.123.659-1.28.443-.164.869-.229 1.68-.234.596.012 1.055.08 1.366.212.355.151.573.471.667.925.092.443.132 1.117.122 2.02v7.914c.02 1.077-.105 1.835-.412 2.231-.3.387-.858.554-1.625.546v.42l4.222.308v-3.363l.22.392c.625 1.113 1.334 1.9 2.123 2.373s1.778.707 2.969.695c1.79.024 3.037-.576 3.767-1.775.267-.401.462-.885.578-1.451s.174-1.292.171-2.175v-6.115c-.011-.912.027-1.591.115-2.032.09-.454.306-.773.662-.92.294-.121.98-.187 1.565-.203.548.017.972.084 1.262.211.346.151.555.472.644.926.086.441.123 1.116.112 2.018v14.378c.011.824-.023 1.435-.106 1.829-.086.411-.298.694-.645.816-.301.106-.752.156-1.344.158v.421l4.391.224-.125-2.991-.044-2.788v-9.659l4.838 5.301c.684.758 1.058 1.395 1.063 1.905.035.71-.682 1.031-1.859 1.09v.419h6.287v-.426c-.378-.044-.707-.113-.986-.209-.304-.103-.616-.253-.934-.445l-.812-.537c-.223-.167-.486-.404-.789-.712l-1.317-1.399-1.597-1.719 4.18-6.575c.477-.779.916-1.33 1.319-1.643.385-.298.876-.49 1.467-.581v-.43h-3.823l-.433.831-.608 1.109-.465.835-3.094 5.042-2.431-2.72-.006-1.524c-.011-.902.026-1.577.113-2.019.09-.454.302-.775.653-.926.307-.131.764-.2 1.358-.212v-.416h-12.921v.417c.875.024 1.476.167 1.717.486.097.124.17.265.221.423s.083.364.098.614l.055.858.034.773v5.939c.005 1.465-.152 2.549-.484 3.238-.503 1.084-1.413 1.627-2.703 1.632-1.438.005-2.585-.68-3.435-2.033-.32-.511-.568-1.093-.747-1.742s-.271-1.291-.274-1.921v-5.111c-.011-.912.027-1.591.115-2.032.09-.454.305-.773.661-.92.311-.128.774-.194 1.378-.205v-.416l-6.355.001-2.169-.041c-.558.008-.827.067-1.336.105-.452.132-.642.25-.791.546m-7.493 3.254c.011-.962.245-1.744.712-2.334s1.102-.897 1.884-.912c.79.011 1.537.217 2.236.617s1.246.933 1.644 1.596c.243.423.42.967.531 1.626s.165 1.472.163 2.447v1.515l-3.163-.411c-.741-.157-1.395-.381-1.965-.674-1.353-.672-2.032-1.837-2.042-3.47"/><g fill-rule="evenodd"><path d="M336.217 742.501v-5.265c-.011-.845.037-1.472.145-1.881s.343-.68.704-.812.915-.207 1.662-.222v-.735h-8.267v.735c.705.015 1.226.089 1.564.222s.557.402.657.812.144 1.036.133 1.881v13.84c.011.845-.033 1.473-.129 1.883s-.307.683-.63.819-.82.217-1.491.242v.736h7.876c2.655.011 4.599-.458 5.835-1.405s1.845-2.442 1.831-4.482c.008-2.868-1.108-4.745-3.349-5.632-.585-.229-1.331-.408-2.237-.538s-1.913-.195-3.022-.198h-1.282zm0 .821h1.361c1.635.005 2.838.392 3.61 1.16.42.445.738 1.027.955 1.748s.326 1.543.327 2.469c-.009 3.486-1.535 5.231-4.579 5.236h-1.674v-10.613zm23.2-1.71h-9.62c.011-1.026.071-1.887.181-2.582s.285-1.329.527-1.904c.799-1.862 2.033-2.792 3.703-2.792a4.35 4.35 0 0 1 2.573.835c.77.552 1.409 1.345 1.92 2.381l.681-.452c-.67-1.333-1.488-2.312-2.454-2.937s-2.145-.934-3.537-.928c-2.19.028-4.203.728-5.465 2.098s-1.904 3.249-1.929 5.632c.025 2.401.647 4.3 1.865 5.699s3.162 2.113 5.257 2.144c1.394-.004 2.739-.321 3.694-.952s1.659-1.556 2.114-2.772c.148-.404.26-.866.337-1.386s.127-1.215.153-2.084m-9.593.818h6.018l-.14 2.102c-.068.531-.176 1.006-.323 1.424-.508 1.482-1.289 2.215-2.341 2.201-1.18-.01-2.061-.837-2.642-2.483-.148-.426-.267-.893-.357-1.4s-.162-1.122-.215-1.844"/></g><path d="M360.033 748.402l5.336.369.064-1.341.021-.958v-.852c1.159 2.119 2.559 3.189 4.201 3.208.709-.014 1.285-.221 1.728-.621s.671-.913.684-1.537c-.01-.519-.202-.935-.575-1.248s-.861-.475-1.468-.483c-.729-.023-1.173.279-1.334.908-.105.389-.214.654-.327.795s-.278.207-.496.199h-.057c-.558-.048-1.088-.492-1.589-1.334-.227-.421-.398-.885-.512-1.395a8.15 8.15 0 0 1-.17-1.756v-5.251c-.011-.838.03-1.456.122-1.853s.301-.657.627-.78.833-.191 1.522-.205v-.682h-7.89v.682c.643-.003 1.119.059 1.429.187s.511.393.604.798.133 1.023.124 1.853v7.863c.026 1.17-.091 1.93-.352 2.281s-.825.508-1.692.472v.681zm18.373.368l.029-2.81c1.149 1.892 2.795 2.848 4.938 2.867 2.181.014 3.524-.979 4.03-2.981.617 1.031 1.321 1.787 2.111 2.268s1.714.718 2.771.713c1.67-.01 2.9-.558 3.69-1.646.309-.412.528-.916.66-1.512s.195-1.369.191-2.32v-6.244c-.009-.83.032-1.447.124-1.852s.294-.672.604-.799.786-.19 1.43-.187v-.682h-7.692v.682c.615-.003 1.071.059 1.369.187s.492.393.582.799.13 1.022.121 1.852v6.216c.006 1.491-.177 2.567-.55 3.228s-.975.985-1.806.972c-.998.019-1.84-.501-2.526-1.561-.591-.885-.885-1.84-.88-2.867v-5.988c-.009-.83.031-1.447.122-1.852s.287-.672.589-.799.765-.19 1.389-.187v-.682h-7.606v.682c.615-.003 1.072.059 1.369.187s.492.393.582.799.13 1.022.121 1.852v6.244c.014 2.81-.752 4.201-2.299 4.172-.963-.034-1.77-.491-2.42-1.369s-.988-1.974-1.014-3.286v-5.761c-.009-.839.031-1.461.121-1.865s.283-.669.581-.793.754-.184 1.369-.18v-.682h-7.692v.682c.644-.004 1.12.056 1.43.18s.512.388.604.793.133 1.026.124 1.865v7.89c.029 1.155-.086 1.903-.348 2.246s-.845.502-1.752.479v.681l5.534.369zm40.757-1.299v-9.48l.067-1.532c.046-.404.118-.745.217-1.022.12-.317.305-.57.557-.759a1.39 1.39 0 0 1 .833-.291c.606.009 1.268.302 1.987.88l.397-.71c-1.139-.955-2.436-1.428-3.888-1.419-1.566.024-2.635.544-3.207 1.561-.112.225-.2.482-.262.77s-.105.677-.129 1.166l-.035 1.981v8.855h-1.618v.851c.618.024 1.142.154 1.572.391s.805.608 1.125 1.114c.251.385.458.814.621 1.284s.305 1.055.429 1.753l1.419.142-.047-1.143-.028-1.395-.01-2.088h3.434v-.909h-3.434z"/><g fill-rule="evenodd"><path d="M414.068 734.187v-.6l-2.039-.055c-.693-.001-1.41.011-2.005.235-.368.138-.574.256-.848.546-.192.304-.314.32-.376 1.167-.732-.791-1.495-1.373-2.287-1.745s-1.649-.557-2.566-.554c-1.362.015-2.427.391-3.196 1.129s-1.161 1.752-1.175 3.044c-.005 2.436 1.51 3.95 4.542 4.541 1.367.265 2.918.444 4.654.539v1.845c.015 1.478-.142 2.503-.468 3.072s-.908.842-1.746.816c-.889.019-1.523-.302-1.901-.965a2.53 2.53 0 0 1-.302-.784c-.063-.295-.114-.705-.152-1.231-.023-.505-.17-.864-.44-1.078s-.702-.318-1.292-.313c-1.315.01-1.977.445-1.987 1.306.005.502.16.981.466 1.437s.737.857 1.295 1.203c1.182.728 2.733 1.087 4.654 1.078 1.954.009 3.354-.378 4.201-1.164.381-.359.661-.818.84-1.376s.268-1.272.267-2.143l-.029-2.469-.028-2.469-.029-1.533c-.01-1.023.023-1.771.097-2.242s.156-.679.466-.935c.542-.31 1.006-.301 1.384-.302m-5.296 5.409v2.185c-2.032-.138-3.473-.514-4.324-1.128s-1.264-1.572-1.239-2.874c.009-1.021.219-1.831.628-2.43s.967-.905 1.671-.919a2.86 2.86 0 0 1 1.6.501c.489.327.874.785 1.153 1.372.183.36.314.798.394 1.317s.119 1.177.117 1.976m29.734-5.409v-.6l-2.039-.057c-.693-.001-1.41.011-2.005.235-.368.138-.574.256-.848.546-.192.304-.314.32-.376 1.167-.732-.791-1.495-1.373-2.288-1.745a5.9 5.9 0 0 0-2.565-.554c-1.362.015-2.427.391-3.196 1.129s-1.161 1.752-1.175 3.044c-.005 2.436 1.509 3.95 4.542 4.541 1.367.265 2.918.444 4.654.539v1.845c.015 1.478-.142 2.503-.468 3.072s-.909.842-1.746.816c-.889.019-1.523-.302-1.901-.965-.138-.227-.239-.489-.302-.784s-.114-.705-.152-1.231c-.023-.505-.17-.864-.44-1.079s-.702-.317-1.292-.312c-1.315.01-1.977.445-1.987 1.306.005.502.16.981.466 1.437s.737.857 1.294 1.203c1.183.728 2.734 1.087 4.655 1.078 1.954.009 3.354-.378 4.201-1.164.381-.359.661-.818.84-1.376s.268-1.272.267-2.143l-.029-2.469-.028-2.469-.029-1.533c-.01-1.023.023-1.771.097-2.243s.156-.678.466-.934c.542-.31 1.006-.299 1.384-.3m-5.296 5.407v2.185c-2.032-.138-3.474-.514-4.324-1.128s-1.264-1.572-1.239-2.874c.009-1.021.219-1.831.628-2.43s.967-.905 1.671-.919a2.86 2.86 0 0 1 1.6.501c.489.328.873.785 1.153 1.373.183.358.314.797.394 1.316s.119 1.177.117 1.976"/></g><path d="M496.948 769.094l-.056-1.093 20.973-24.603.753-.123.095.047.368.682-8.944 29.938-1.518 1.023-11.671-5.871z"/></g><g clip-path="url(#B)"><path d="M503.15 766.805l15.51-23.596-.825.135-21 24.667 6.315-1.206z" fill-rule="evenodd"/><path d="M508.641 774.991l1.513-1.027-4.699-6.248-2.182.954 5.368 6.321z"/><path d="M503.272 768.671l-.122-1.866-6.314 1.206.066 1.085 6.37-.425zm2.183-.956l4.709 6.258 9.057-29.963-.461-.775-13.305 24.48z"/></g><g clip-path="url(#C)"><path d="M530.605 775.558l13.561-6.235.025-1.759-22.255-33.711-1.016-.268-.15.069-.317.76 8.97 40.487 1.182.657z"/></g><g clip-path="url(#D)"><path d="M544.238 767.568l-22.237-33.784-1.137-.331 14.293 33.342 9.081.773zm-11.642.635l-11.86-34.646-.334.85 9.005 40.528 3.189-6.732z"/><path d="M544.202 769.323l.036-1.755-9.081-.774-.512 2.405 9.557.124z"/><path d="M534.645 769.199l-2.05-.994-3.19 6.733 1.172.661 4.068-6.4z"/></g><g clip-path="url(#E)"><path d="M509.89 785.15l.54 1.04 17.362.188 1.122-1.165-8.318-27.791-.527-.306-.017.001-.57.384-9.592 27.649z"/></g><g clip-path="url(#F)"><path d="M517.867 783.28l-1.251-1.478-6.785 3.379.548 1.028 7.488-2.929z"/><path d="M509.83 785.181l6.786-3.379 3.44-24.743-.602.41-9.624 27.712zm10.051-3.382l9.064 3.426-8.306-27.841-.57-.324-.188 24.739z"/><path d="M517.868 783.28l2.012-1.482 9.065 3.426-1.135 1.159-9.942-3.103z"/></g></g></svg>