<svg xmlns="http://www.w3.org/2000/svg" viewBox="0 0 543 202"  xmlns:v="https://vecta.io/nano"><path d="M-.406.997c-2.2 2.3-2.2 2.8-2.2 34.5v32.2h9v-55.1l2.5-2.4 2.4-2.5h56.1v-9h-65.7l-2.1 2.3zm25.1 31.7c-1.2.5-2.7 1.8-3.3 3-.8 1.5-1.2 20.8-1.3 66.1l-.2 64.1 5.6 4.8h82.9v-34h-52v-105l-14.7.1c-8.2 0-15.8.4-17 .9zm47.7 17v18h53v51h36.1l-.6-81.9-4.6-4.6-83.9-.6v18.1zm102-1.5v16.5h103v20h-103v86h34l.2-26.1.3-26.2 55.9 52.3h25.4c14 0 25.2-.4 25-.8-.1-.5-13-12.5-28.6-26.8l-28.3-25.9 28.5-.3 28.6-.2v-85h-141v16.5zm155 53v69.5h35v-139h-35v69.5zm49-26v43.5h92v16h-92v35h139v-86h-92v-17h92v-35h-139v43.5zm-306 25.5v18h36v-36h-36v18zm25 .5v6.5h-14v-13h14v6.5zm28 66.5v33h36v-66h-36v33zm406-5.9v27.1l-5.8 5.8h-55.2v6h34.4c30.4 0 34.5-.2 35-1.6.3-.9.6-15.7.6-33v-31.4h-9v27.1z"/></svg>