<svg xmlns="http://www.w3.org/2000/svg" viewBox="0 0 1000 238.92"  xmlns:v="https://vecta.io/nano"><path d="M0 21.757A21.76 21.76 0 0 1 21.757 0h195.407c12.015 0 21.757 9.742 21.757 21.757v195.407a21.76 21.76 0 0 1-21.757 21.757H21.757C9.737 238.921 0 229.183 0 217.164z"/><path d="M188.883 121.662c-1.321 45.679-38.764 82.303-84.76 82.303s-83.439-36.624-84.76-82.303h4.198c.356 35.785 29.476 64.676 65.344 64.676s64.983-28.89 65.344-64.676zm39.364 0c-1.17 59.078-49.428 106.605-108.784 106.605S11.854 180.74 10.678 121.662h4.447c1.414 48.005 40.773 86.486 89.119 86.486s87.71-38.482 89.119-86.486zm-78.407 0c-.263 33.459-27.472 60.497-60.985 60.497-33.523 0-60.721-27.038-60.985-60.497h4.501l-.024 1.512c0 24.073 19.509 43.587 43.582 43.587s43.592-19.514 43.592-43.587c0-.507-.01-1.009-.029-1.512zm-60.75-4.403c.263-33.459 27.462-60.497 60.985-60.497s60.721 27.038 60.985 60.497h-4.505a38.91 38.91 0 0 0 .024-1.512c0-24.073-19.514-43.587-43.582-43.587-24.078 0-43.587 19.514-43.587 43.587a38.91 38.91 0 0 0 .024 1.512zm-78.411 0C11.854 58.186 60.107 10.654 119.463 10.654s107.614 47.532 108.784 106.605H223.8c-1.419-48.005-40.773-86.486-89.119-86.486s-87.705 38.482-89.119 86.486zm39.364 0c1.321-45.679 38.764-82.298 84.76-82.298s83.439 36.619 84.76 82.298h-4.198c-.361-35.785-29.48-64.676-65.344-64.676s-64.988 28.89-65.344 64.676z" paint-order="fill" fill="#fff"/><path d="M287.398 40.91c0 4.935.785 8.582 2.36 10.942 2.204 3.35 5.13 5.027 8.787 5.027 2.809 0 5.198-1.18 7.158-3.545 1.994-2.389 2.989-6.144 2.989-11.259 0-5.442-.995-9.362-2.989-11.751-1.989-2.423-4.544-3.633-7.655-3.633-3.052 0-5.588 1.18-7.611 3.545-2.024 2.331-3.038 5.885-3.038 10.674m49.458-8.255l-11.551-2.063c1.297-4.608 3.53-8.011 6.705-10.225s7.885-3.321 14.136-3.321c5.681 0 9.903.673 12.683 2.019 2.779 1.317 4.73 3.004 5.846 5.066 1.146 2.038 1.716 5.788 1.721 11.259l-.132 14.716c0 4.184.19 7.28.585 9.284.419 1.97 1.19 4.096 2.311 6.368h-12.595c-.332-.839-.741-2.077-1.224-3.725-.215-.746-.361-1.239-.453-1.477-2.175 2.092-4.501 3.667-6.978 4.71s-5.12 1.57-7.928 1.57c-4.954 0-8.865-1.331-11.732-3.993-2.838-2.657-4.262-6.022-4.262-10.093 0-2.692.649-5.081 1.95-7.178 1.297-2.121 3.111-3.735 5.437-4.842 2.355-1.136 5.739-2.121 10.147-2.96 5.954-1.107 10.069-2.141 12.366-3.096v-1.258c0-2.419-.6-4.14-1.809-5.159-1.209-1.043-3.491-1.565-6.841-1.565-2.267 0-4.032.449-5.3 1.346-1.268.863-2.297 2.409-3.082 4.618m17.032 10.225c-1.629.541-4.208 1.185-7.743 1.931s-5.846 1.482-6.934 2.199c-1.658 1.165-2.492 2.648-2.492 4.437 0 1.77.668 3.291 1.994 4.579s3.018 1.926 5.076 1.926c2.292 0 4.481-.746 6.568-2.243 1.541-1.131 2.55-2.526 3.033-4.169.336-1.078.497-3.126.497-6.144zm64.183 22.878h-12.731V41.446c0-5.144-.273-8.465-.814-9.957-.546-1.526-1.438-2.706-2.672-3.545-1.209-.839-2.677-1.253-4.398-1.253-2.204 0-4.184.595-5.934 1.794a9.15 9.15 0 0 0-3.623 4.754c-.634 1.97-.951 5.622-.951 10.942v21.576h-12.731V18.124h11.824v6.992c4.198-5.378 9.484-8.07 15.857-8.07 2.809 0 5.373.507 7.699 1.526 2.326.985 4.081 2.258 5.256 3.813 1.209 1.555 2.038 3.316 2.497 5.29.478 1.975.717 4.803.722 8.479zm7.821 0V0h12.726v34.898l14.911-16.774h15.672L452.76 35.527l17.622 30.231h-13.726l-12.097-21.396-5.939 6.144v15.252zm-151.133 0V0h12.731v23.683c3.925-4.423 8.577-6.636 13.955-6.636 5.861 0 10.703 2.106 14.545 6.324 3.833 4.184 5.749 10.215 5.754 18.075 0 8.133-1.965 14.399-5.89 18.792-3.901 4.398-8.64 6.597-14.228 6.597-2.75 0-5.466-.673-8.153-2.019-2.657-1.375-4.954-3.394-6.89-6.056v6.997zm636.326 122.1l25.272-3.852c1.078 4.9 3.257 8.631 6.544 11.2 3.286 2.511 7.885 3.764 13.804 3.764 6.514 0 11.415-1.19 14.701-3.584 2.209-1.672 3.316-3.915 3.316-6.724 0-1.907-.6-3.491-1.794-4.749-1.253-1.19-4.062-2.297-8.421-3.316-20.318-4.481-33.201-8.572-38.633-12.278-7.529-5.134-11.293-12.278-11.293-21.42 0-8.245 3.252-15.174 9.767-20.791s16.613-8.426 30.3-8.426c13.024 0 22.703 2.121 29.042 6.363s10.688 10.518 13.087 18.817l-23.756 4.393c-1.019-3.701-2.96-6.539-5.827-8.514-2.809-1.97-6.841-2.955-12.102-2.955-6.631 0-11.381.926-14.253 2.779-1.911 1.317-2.867 3.018-2.867 5.105 0 1.794.834 3.316 2.511 4.574 2.272 1.672 10.098 4.032 23.483 7.08 13.448 3.048 22.83 6.783 28.144 11.2 5.261 4.486 7.885 10.727 7.889 18.734 0 8.723-3.642 16.223-10.932 22.498s-18.08 9.411-32.362 9.411c-12.965 0-23.244-2.628-30.831-7.889-7.529-5.256-12.458-12.395-14.789-21.42m-31.519-18.548c-3.223 1.073-8.333 2.36-15.325 3.847-6.992 1.497-11.566 2.96-13.711 4.393-3.291 2.331-4.93 5.29-4.93 8.874 0 3.525 1.312 6.573 3.94 9.138 2.628 2.575 5.978 3.857 10.04 3.857 4.544 0 8.874-1.492 12.995-4.481 3.052-2.267 5.052-5.047 6.012-8.333.653-2.15.975-6.241.98-12.283zm-33.703-20.44l-22.854-4.12c2.565-9.201 6.987-16.013 13.268-20.435 6.271-4.418 15.594-6.631 27.964-6.631 11.229 0 19.597 1.341 25.097 4.032 5.495 2.628 9.352 6.002 11.566 10.128 2.267 4.062 3.403 11.561 3.403 22.498l-.268 29.398c0 8.362.385 14.545 1.165 18.548.834 3.945 2.355 8.187 4.569 12.726h-24.917c-.658-1.668-1.468-4.15-2.419-7.436-.424-1.492-.717-2.482-.897-2.96-4.306 4.184-8.904 7.324-13.804 9.411s-10.132 3.135-15.686 3.14c-9.801 0-17.539-2.657-23.215-7.982-5.617-5.31-8.426-12.039-8.426-20.162 0-5.378 1.282-10.157 3.857-14.34 2.57-4.242 6.154-7.465 10.752-9.679 4.666-2.267 11.351-4.242 20.079-5.915 11.771-2.214 19.923-4.271 24.468-6.183v-2.511c0-4.842-1.19-8.275-3.584-10.308-2.389-2.092-6.9-3.135-13.536-3.135-4.481 0-7.977.897-10.483 2.687-2.511 1.731-4.544 4.813-6.1 9.23m-174.747-29.037h23.215v12.995c8.304-10.098 18.192-15.145 29.671-15.145 6.095 0 11.381 1.253 15.862 3.764s8.158 6.305 11.025 11.381c4.184-5.076 8.694-8.869 13.541-11.381 4.837-2.511 10.006-3.764 15.506-3.764 6.987 0 12.907 1.434 17.744 4.301 4.842 2.809 8.455 6.963 10.844 12.458 1.736 4.062 2.599 10.639 2.599 19.719v60.853h-25.19v-54.402c0-9.435-.863-15.53-2.594-18.285-2.331-3.584-5.915-5.373-10.757-5.373-3.53 0-6.841 1.073-9.947 3.223s-5.354 5.32-6.729 9.499c-1.375 4.125-2.058 10.669-2.058 19.636v45.703h-25.185v-52.159c0-9.26-.449-15.238-1.346-17.929s-2.301-4.686-4.213-6.002c-1.853-1.312-4.393-1.97-7.621-1.97-3.886 0-7.377 1.043-10.483 3.135-3.116 2.092-5.354 5.11-6.729 9.055-1.317 3.94-1.97 10.483-1.97 19.626v46.244h-25.185zm-39.023 95.18h-25.185v-95.18h23.39v13.531c4.008-6.388 7.592-10.6 10.761-12.639 3.223-2.028 6.865-3.043 10.932-3.043 5.734 0 11.259 1.585 16.583 4.749l-7.797 21.957c-4.247-2.745-8.187-4.12-11.834-4.12-3.53 0-6.514.985-8.962 2.955-2.453 1.911-4.393 5.408-5.827 10.488-1.38 5.081-2.063 15.715-2.063 31.904zm-61.745-45.703c-3.223 1.073-8.333 2.36-15.325 3.847-6.992 1.497-11.561 2.96-13.711 4.393-3.291 2.331-4.935 5.29-4.935 8.874 0 3.525 1.317 6.573 3.945 9.138 2.628 2.575 5.978 3.857 10.04 3.857 4.544 0 8.869-1.492 12.995-4.481 3.052-2.267 5.052-5.047 6.007-8.333.658-2.15.98-6.241.985-12.283zm-33.703-20.44l-22.854-4.12c2.57-9.201 6.992-16.013 13.268-20.435s15.598-6.631 27.964-6.631c11.229 0 19.597 1.341 25.097 4.032 5.5 2.628 9.352 6.002 11.566 10.128 2.267 4.062 3.403 11.561 3.403 22.498l-.268 29.398c0 8.362.385 14.545 1.165 18.548.834 3.945 2.355 8.187 4.569 12.726h-24.917c-.658-1.668-1.468-4.15-2.423-7.436-.419-1.492-.712-2.482-.897-2.96-4.301 4.184-8.899 7.324-13.799 9.411s-10.128 3.135-15.686 3.14c-9.801 0-17.539-2.657-23.215-7.982-5.622-5.31-8.426-12.039-8.426-20.162 0-5.378 1.282-10.157 3.857-14.34 2.565-4.242 6.154-7.465 10.752-9.679 4.666-2.267 11.356-4.242 20.079-5.915 11.771-2.214 19.928-4.271 24.468-6.183v-2.511c0-4.842-1.195-8.275-3.584-10.308-2.389-2.092-6.904-3.135-13.531-3.135-4.481 0-7.982.897-10.493 2.687-2.511 1.731-4.544 4.813-6.095 9.23m-35.185 66.143h-25.19v-48.575c0-10.274-.536-16.91-1.614-19.899-1.078-3.043-2.838-5.403-5.286-7.075-2.394-1.677-5.29-2.511-8.699-2.511-4.359 0-8.275 1.195-11.741 3.584s-5.856 5.554-7.168 9.499c-1.253 3.945-1.882 11.234-1.882 21.869v43.109h-25.185v-95.18h23.39v13.984c8.304-10.757 18.763-16.135 31.372-16.135 5.559 0 10.635 1.014 15.238 3.043 4.603 1.975 8.065 4.515 10.401 7.621 2.389 3.111 4.028 6.631 4.93 10.576.951 3.94 1.429 9.591 1.434 16.939zm-128.41-95.18h25.19v95.185h-25.19zm0-36.209h25.19v23.303h-25.19zM271.258 187.859l25.277-3.852c1.082 4.9 3.257 8.631 6.544 11.2 3.291 2.511 7.889 3.764 13.804 3.764 6.514 0 11.415-1.19 14.701-3.584 2.209-1.672 3.316-3.915 3.316-6.724 0-1.907-.6-3.491-1.794-4.749-1.248-1.19-4.062-2.297-8.421-3.316-20.318-4.481-33.196-8.572-38.633-12.278-7.529-5.134-11.293-12.278-11.293-21.42 0-8.245 3.252-15.174 9.767-20.791s16.613-8.426 30.295-8.426c13.029 0 22.708 2.121 29.047 6.363s10.693 10.518 13.087 18.817l-23.756 4.393c-1.014-3.701-2.96-6.539-5.827-8.514-2.809-1.97-6.841-2.955-12.102-2.955-6.627 0-11.381.926-14.248 2.779-1.916 1.317-2.872 3.018-2.872 5.105 0 1.794.839 3.316 2.511 4.574 2.267 1.672 10.098 4.032 23.483 7.08 13.448 3.048 22.83 6.783 28.149 11.2 5.256 4.486 7.885 10.727 7.889 18.734 0 8.723-3.647 16.223-10.942 22.498s-18.075 9.411-32.357 9.411c-12.965 0-23.244-2.628-30.831-7.889-7.529-5.256-12.458-12.395-14.794-21.42"/></svg>